/* XPM */
static char * pacman_up_xpm[] = {
"32 32 72 1",
" 	c None",
".	c #000000",
"+	c #040402",
"@	c #040403",
"#	c #030302",
"$	c #DDC120",
"%	c #F5D725",
"&	c #77670D",
"*	c #A38E16",
"=	c #F4D725",
"-	c #C3AB1C",
";	c #030303",
">	c #DDC220",
",	c #77680D",
"'	c #A38F16",
")	c #F5D825",
"!	c #C3AC1C",
"~	c #DEC320",
"{	c #F4D724",
"]	c #F6D825",
"^	c #A09419",
"/	c #B19B19",
"(	c #F6D925",
"_	c #C4AB1C",
":	c #EFD827",
"<	c #F4D726",
"[	c #A0951B",
"}	c #B29C19",
"|	c #F6D826",
"1	c #F5D826",
"2	c #F3D726",
"3	c #DAC828",
"4	c #F4D826",
"5	c #DFCA27",
"6	c #040302",
"7	c #E7CC23",
"8	c #998715",
"9	c #B9A81E",
"0	c #E9CC23",
"a	c #F5D726",
"b	c #F0D425",
"c	c #CAB11C",
"d	c #F4D625",
"e	c #A08E17",
"f	c #C5B320",
"g	c #F6D926",
"h	c #DCC120",
"i	c #DFC926",
"j	c #C3AF1E",
"k	c #DEC927",
"l	c #A28E16",
"m	c #C4AF1F",
"n	c #C4B01F",
"o	c #F4D624",
"p	c #DCC020",
"q	c #EDD124",
"r	c #F3D626",
"s	c #D2B71F",
"t	c #DFCA28",
"u	c #F0D927",
"v	c #F4D825",
"w	c #F3D826",
"x	c #DBC929",
"y	c #DEC321",
"z	c #F6D827",
"A	c #C4AC1C",
"B	c #DCC321",
"C	c #C2AB1C",
"D	c #DCC01F",
"E	c #040303",
"F	c #DEC926",
"G	c #C1A91B",
"                                ",
"                                ",
"                                ",
"                                ",
"                                ",
"           .       .            ",
"          +@.      .++          ",
"        ##$%&.    .*=-#;        ",
"       @>=%%,.    .'))=!#       ",
"       +~{]%=^.  ./%())_#       ",
"      @:<%)%%[.  .}|)1)23@      ",
"      +4)%)%%[.  .}1111%5#      ",
"     6>%)|%%%78..90%1a||bc;     ",
"     +d)%%%={%e..f1|ga))%h#     ",
"     #%%%%.#i%%*j%%%||)%]h#     ",
"     +d%1).6k%%lm%|)%1%%%h#     ",
"     +%%1%%%%%%*n)1|%%%))h#     ",
"     #o%))%%1)%%%|))1|1%)p#     ",
"     +o%1%11|1a11)111%111h+     ",
"     +q%)|%11%111%a||%%ars#     ",
"      #4%)%1a)aaa1111a%)t#      ",
"      +uv)%)))111a1||%1wx#      ",
"       @y%)%a%1aa1az%aaA#       ",
"       @B=%%1%%=%%%%11=C#       ",
"        +;Dod=%a%%%%=-E#        ",
"          ##F==a4<=G@#          ",
"            ++++@@#@            ",
"                                ",
"                                ",
"                                ",
"                                ",
"                                "};
