/* XPM */
static char * pacman_down_xpm[] = {
"32 32 72 1",
" 	c None",
".	c #040403",
"+	c #030302",
"@	c #040402",
"#	c #C1A91B",
"$	c #F4D725",
"%	c #F4D726",
"&	c #F4D826",
"*	c #F5D726",
"=	c #DEC926",
"-	c #040303",
";	c #C3AB1C",
">	c #F5D725",
",	c #F4D625",
"'	c #F4D624",
")	c #DCC01F",
"!	c #030303",
"~	c #C2AB1C",
"{	c #F5D826",
"]	c #DCC321",
"^	c #C4AC1C",
"/	c #F6D827",
"(	c #F5D825",
"_	c #DEC321",
":	c #DBC929",
"<	c #F3D826",
"[	c #F6D826",
"}	c #F4D825",
"|	c #F0D927",
"1	c #DFCA28",
"2	c #D2B71F",
"3	c #F3D626",
"4	c #EDD124",
"5	c #DCC120",
"6	c #DCC020",
"7	c #C4B01F",
"8	c #A38E16",
"9	c #C4AF1F",
"0	c #A28E16",
"a	c #DEC927",
"b	c #040302",
"c	c #000000",
"d	c #F6D825",
"e	c #C3AF1E",
"f	c #DFC926",
"g	c #F6D926",
"h	c #C5B320",
"i	c #A08E17",
"j	c #F4D724",
"k	c #CAB11C",
"l	c #F0D425",
"m	c #E9CC23",
"n	c #B9A81E",
"o	c #998715",
"p	c #E7CC23",
"q	c #DDC220",
"r	c #DFCA27",
"s	c #B29C19",
"t	c #A0951B",
"u	c #DAC828",
"v	c #F3D726",
"w	c #EFD827",
"x	c #C4AB1C",
"y	c #F6D925",
"z	c #B19B19",
"A	c #A09419",
"B	c #DEC320",
"C	c #C3AC1C",
"D	c #A38F16",
"E	c #77680D",
"F	c #77670D",
"G	c #DDC120",
"                                ",
"                                ",
"                                ",
"                                ",
"                                ",
"            .+..@@@@            ",
"          +.#$%&*$$=++          ",
"        +-;$>>>>*>$,')!@        ",
"       +~${{>>>>$>>{>>$].       ",
"       +^**>/*{**{>*>(>_.       ",
"      +:<{>[[{*{{{(((>(}|@      ",
"      +1(>*{{{{***(*{>(>&+      ",
"     +23*>>[[*>{{{>{{>[(>4@     ",
"     @5{{{>{{{({{*{[{{>{>'@     ",
"     +6(>{[{(([>>>({>>((>'+     ",
"     +5((>>>[{(78>>>>>>{>>@     ",
"     +5>>>{>([>90>>abc({>,@     ",
"     +5d>([[>>>e8>>f+c>>>>+     ",
"     +5>((*g[{hcci>j$>>>(,@     ",
"     !kl[[*{>mnccop>>>[(>qb     ",
"      +r>{{{{sc  ct>>(>(&@      ",
"      .uv({([sc  ct>>(>%w.      ",
"       +x((y>zc  cA$>djB@       ",
"       +C$((Dc    cE>>$q.       ",
"        !+;$8c    cF>G++        ",
"          @@c      c.@          ",
"            c       c           ",
"                                ",
"                                ",
"                                ",
"                                ",
"                                "};
