/* XPM */
static char * pacman_left_xpm[] = {
"32 32 72 1",
" 	c None",
".	c #040302",
"+	c #040402",
"@	c #030302",
"#	c #040403",
"$	c #DDC220",
"%	c #F4D625",
"&	c #F5D725",
"*	c #F4D624",
"=	c #EDD124",
"-	c #EFD827",
";	c #F4D826",
">	c #F5D825",
",	c #F0D927",
"'	c #DEC320",
")	c #F4D726",
"!	c #F5D826",
"~	c #F4D825",
"{	c #DEC321",
"]	c #DCC321",
"^	c #F4D725",
"/	c #F4D724",
"(	c #F6D826",
"_	c #030303",
":	c #DDC120",
"<	c #F6D825",
"[	c #000000",
"}	c #DCC01F",
"|	c #77670D",
"1	c #77680D",
"2	c #DFC926",
"3	c #DEC927",
"4	c #F5D726",
"5	c #DEC926",
"6	c #A09419",
"7	c #A0951B",
"8	c #E7CC23",
"9	c #998715",
"0	c #A08E17",
"a	c #A38E16",
"b	c #A28E16",
"c	c #C3AF1E",
"d	c #C4AF1F",
"e	c #C4B01F",
"f	c #B9A81E",
"g	c #C5B320",
"h	c #B19B19",
"i	c #B29C19",
"j	c #E9CC23",
"k	c #A38F16",
"l	c #F6D827",
"m	c #C1A91B",
"n	c #F6D925",
"o	c #F6D926",
"p	c #C3AB1C",
"q	c #040303",
"r	c #C3AC1C",
"s	c #C4AB1C",
"t	c #F3D726",
"u	c #F3D826",
"v	c #C4AC1C",
"w	c #C2AB1C",
"x	c #DAC828",
"y	c #DFCA27",
"z	c #F0D425",
"A	c #F3D626",
"B	c #DFCA28",
"C	c #DBC929",
"D	c #CAB11C",
"E	c #DCC120",
"F	c #DCC020",
"G	c #D2B71F",
"                                ",
"                                ",
"                                ",
"                                ",
"                                ",
"            .+@++@++            ",
"          #+$%&%&**=@+          ",
"        #+-;&>&&&&&&;,##        ",
"       @$')>>&&!!>!>&~{]+       ",
"       @^/&&(&&>&>&(>>&^_       ",
"      +:&<>>&&[[&&!&&&>&}@      ",
"     [#&&&&&&^@.&&!!!>&&*@      ",
"      [|1^&&&/23&!(!4>4!%5+     ",
"       [[6778&&&&>!&>>&&^^+     ",
"         [[[90&&&&4!4!!&&^+     ",
"            [[aba&!!4!4^44+     ",
"            [[cde&!!4!4&&;#     ",
"         [[[fg&&>(>&!4!&&)#     ",
"       [[hiij!&(!>!4!!4&&^@     ",
"     [[ak&(!&(&>(>!(!(l&&m#     ",
"      +^>n>!!o(&&!!(!(&!^#      ",
"      +p>>!!44(!&(&&4&4!p@      ",
"       @^>>!(>>&&!!&&!4^q       ",
"       _rst&(>&&>&!4>uvw@       ",
"        @@xyz&<&>>!ABC@@        ",
"          #@DEEEEFEG@@          ",
"            _@@@@@+@            ",
"                                ",
"                                ",
"                                ",
"                                ",
"                                "};
