/* XPM */
static char * pacman_right_xpm[] = {
"32 32 72 1",
" 	c None",
".	c #040402",
"+	c #030302",
"@	c #040302",
"#	c #EDD124",
"$	c #F4D624",
"%	c #F5D725",
"&	c #F4D625",
"*	c #DDC220",
"=	c #040403",
"-	c #F0D927",
";	c #F4D826",
">	c #F5D825",
",	c #EFD827",
"'	c #DCC321",
")	c #DEC321",
"!	c #F4D825",
"~	c #F5D826",
"{	c #F4D726",
"]	c #DEC320",
"^	c #030303",
"/	c #F4D725",
"(	c #F6D826",
"_	c #F4D724",
":	c #DCC01F",
"<	c #000000",
"[	c #F6D825",
"}	c #DDC120",
"|	c #DEC926",
"1	c #F5D726",
"2	c #DEC927",
"3	c #DFC926",
"4	c #77680D",
"5	c #77670D",
"6	c #E7CC23",
"7	c #A0951B",
"8	c #A09419",
"9	c #A08E17",
"0	c #998715",
"a	c #A38E16",
"b	c #A28E16",
"c	c #C4B01F",
"d	c #C4AF1F",
"e	c #C3AF1E",
"f	c #C5B320",
"g	c #B9A81E",
"h	c #E9CC23",
"i	c #B29C19",
"j	c #B19B19",
"k	c #C1A91B",
"l	c #F6D827",
"m	c #A38F16",
"n	c #F6D926",
"o	c #F6D925",
"p	c #C3AB1C",
"q	c #040303",
"r	c #C2AB1C",
"s	c #C4AC1C",
"t	c #F3D826",
"u	c #F3D726",
"v	c #C4AB1C",
"w	c #C3AC1C",
"x	c #DBC929",
"y	c #DFCA28",
"z	c #F3D626",
"A	c #F0D425",
"B	c #DFCA27",
"C	c #DAC828",
"D	c #D2B71F",
"E	c #DCC120",
"F	c #DCC020",
"G	c #CAB11C",
"                                ",
"                                ",
"                                ",
"                                ",
"                                ",
"            ..+..+.@            ",
"          .+#$$%&%&*.=          ",
"        ==-;%%%%%%>%;,.=        ",
"       .')!%>~>~~%%>>{]*+       ",
"       ^/%>>(%>%>%%(%%_/+       ",
"      +:%>%%%~%%<<%%>>[%}.      ",
"      +$%%>~~~%%@+/%%%%%%=<     ",
"     .|&~1>1~(~%23_%%%/45<      ",
"     .//%%>>%~>%%%%6778<<       ",
"     ./%%~~1~1%%%%90<<<         ",
"     .11/1~1~~%aba<<            ",
"     =;%%1~1~~%cde<<            ",
"     ={%%~1~%>(>%%fg<<<         ",
"     +/%%1~~1~>~(%~hiij<<       ",
"     =k%%l(~(~>(>%(%~(%ma<<     ",
"      =/~%(~(~~%%(n~~>o>/.      ",
"      +p~1%1%%(%~(11~~>>p.      ",
"       q/1~%%~~%%>>(~>>/+       ",
"       +rst>1~%>%%>(%uvw^       ",
"        ++xyz~>>%[%ABC++        ",
"          ++DEFEEEEG+=          ",
"            +.+++++^            ",
"                                ",
"                                ",
"                                ",
"                                ",
"                                "};
