/* XPM */
static const char *exit[] = {
/* columns rows colors chars-per-pixel */
"20 32 102 2 ",
"   c #36233B",
".  c #37233B",
"X  c #38263B",
"o  c #39263B",
"O  c #39273B",
"+  c #3A273B",
"@  c #3C283C",
"#  c #3D283C",
"$  c #3D293C",
"%  c #3E293C",
"&  c #3D293E",
"*  c #3E2C3C",
"=  c #3F2C3C",
"-  c #402F3A",
";  c #412D3C",
":  c #422E3E",
">  c #452D3D",
",  c #462D3D",
"<  c #40303A",
"1  c #40303B",
"2  c #45303D",
"3  c #45313D",
"4  c #46313C",
"5  c #46313D",
"6  c #47313D",
"7  c #46323D",
"8  c #47323D",
"9  c #47333D",
"0  c #47323E",
"q  c #48323D",
"w  c #48333D",
"e  c #48313F",
"r  c #49313F",
"t  c #4A333E",
"y  c #4B333E",
"u  c #4A323F",
"i  c #4A333F",
"p  c #49343D",
"a  c #4A363E",
"s  c #4B363E",
"d  c #4A373F",
"f  c #4C353E",
"g  c #4E393E",
"h  c #503B3E",
"j  c #513C3E",
"k  c #533E3F",
"l  c #543E3F",
"z  c #433040",
"x  c #4A3341",
"c  c #4C3742",
"v  c #4A3644",
"b  c #4C3644",
"n  c #4C3840",
"m  c #4D3840",
"M  c #4C3941",
"N  c #4E3941",
"B  c #4F3A41",
"V  c #4C3A42",
"C  c #4D3B43",
"Z  c #4F3A42",
"A  c #4F3B42",
"S  c #4E3946",
"D  c #503B42",
"F  c #503C42",
"G  c #503C43",
"H  c #503D47",
"J  c #513D47",
"K  c #503B48",
"L  c #574040",
"P  c #564247",
"I  c #574247",
"U  c #584140",
"Y  c #594140",
"T  c #594240",
"R  c #594241",
"E  c #594341",
"W  c #5C4541",
"Q  c #5E4842",
"!  c #5B4844",
"~  c #5B4944",
"^  c #5B4945",
"/  c #5D4A44",
"(  c #534048",
")  c #574348",
"_  c #584348",
"`  c #584448",
"'  c #584449",
"]  c #5B464A",
"[  c #53484D",
"{  c #5D484C",
"}  c #564D51",
"|  c #5D5759",
" . c #624F46",
".. c #635047",
"X. c #635147",
"o. c #625D5F",
"O. c #635A60",
"+. c #646062",
"@. c #737073",
"#. c #817B80",
"$. c #817D81",
"%. c #888787",
/* pixels */
"< / X.X.X.X.X.X.X.X.X.X.X.X.X.X.X. .W  .",
"- E E L L L L L L L L L L L L L L E W X.",
"< ^ i i f f f f f f f f f f f f i > E X.",
"< ^ i g j h h h h h h h h h h j l > E X.",
"< ^ i 6 p p p p p p p p p p p g l > E X.",
"< ^ i 6 6 $ $ $ $ $ $ $ $ $ ; g l > E X.",
"< ^ i 6 c v o o o o o o o   $ g l > E X.",
"< ^ i 6 F ` 6 6 6 6 6 6 6 o $ g l > E X.",
"< ^ i 6 D ` p p p p p p i o $ g l > E X.",
"< ^ i 6 D ` p p p p p p 6 o $ g l > E X.",
"< ^ i 6 D ` p p p p p p 6 o $ g l > E X.",
"< ^ i 6 D ` p p p p p p 6 o $ g l > E X.",
"< ^ i 6 D ` p p p p p p 6 o $ g l > E X.",
"< ^ i 6 D ` N N N N N N N z ; g l > E X.",
"< ^ i 6 N ` _ _ _ _ _ _ ` ) F g l > E X.",
"< ^ x H N p p p p p p p p p p g l > E X.",
"< ^ K #.o.N p p p p p p p p p g l > E X.",
"< ^ S $.%.| [ p p p p p p p p g l > E X.",
"< ^ S @.+.N p p p p p p p p p g l > E X.",
"< ^ b O.} p p p p p p p p p p g l > E X.",
"< ^ i i p 6 6 6 6 6 6 6 6 6 6 g l > E X.",
"< ^ i 6 6 $ . .             $ g l > E X.",
"< ^ i 6 D ( = = = = = = = o $ g l > E X.",
"< ^ i 6 D ` p p p p p p 6 o $ g l > E X.",
"< ^ i 6 D ` p p p p p p 6 o $ g l > E X.",
"< ^ i 6 D ` p p p p p p 6 o $ g l > E X.",
"< ^ i 6 F ` p p p p p p 6 o $ g l > E X.",
"< ^ i 6 F ` p p p p p p 6 o $ g l > E X.",
"< ^ i 6 D ` p p p p p p 6 o $ g l > E X.",
"< ^ i 6 N { I I I I I I I H c g l > E X.",
"< ^ i 6 p N N N N N N N D D N g l > E X.",
"< ^ i 6 p i i p p p p p p p p g l > E X."
};
