/* XPM */
static const char *exit[] = {
/* columns rows colors chars-per-pixel */
"128 128 51 1 ",
"  c #36233B",
". c #37233B",
"X c #39263B",
"o c #3D293C",
"O c #3F2C3C",
"+ c #402F3A",
"@ c #412D3C",
"# c #452D3D",
"$ c #40303A",
"% c #47313D",
"& c #4A333F",
"* c #49343D",
"= c #4C353E",
"- c #4E393E",
"; c #503B3E",
": c #513C3E",
"> c #543E3F",
", c #433040",
"< c #4A3341",
"1 c #4C3742",
"2 c #4A3644",
"3 c #4C3644",
"4 c #4E3941",
"5 c #4E3946",
"6 c #503B42",
"7 c #503C42",
"8 c #503D47",
"9 c #503B48",
"0 c #574040",
"q c #574247",
"w c #594341",
"e c #5C4541",
"r c #5B4945",
"t c #5D4A44",
"y c #534048",
"u c #574348",
"i c #584348",
"p c #584448",
"a c #53484D",
"s c #5D484C",
"d c #564D51",
"f c #5D5759",
"g c #624F46",
"h c #635147",
"j c #625D5F",
"k c #635A60",
"l c #646062",
"z c #737073",
"x c #817B80",
"c c #817D81",
"v c #888787",
/* pixels */
"$$$$$$ttttttthhhhhhhhhhhhhhhhhhhhhhhhhhhhhhhhhhhhhhhhhhhhhhhhhhhhhhhhhhhhhhhhhhhhhhhhhhhhhhhhhhhhhhhhhhhhhhhhggggggeeeeeeegggggg",
"$$$$$$ttttttthhhhhhhhhhhhhhhhhhhhhhhhhhhhhhhhhhhhhhhhhhhhhhhhhhhhhhhhhhhhhhhhhhhhhhhhhhhhhhhhhhhhhhhhhhhhhhhhggggggeeeeeeegggggg",
"$$$$$$ttttttthhhhhhhhhhhhhhhhhhhhhhhhhhhhhhhhhhhhhhhhhhhhhhhhhhhhhhhhhhhhhhhhhhhhhhhhhhhhhhhhhhhhhhhhhhhhhhhhggggggeeeeeeegggggg",
"$$$$$$ttttttthhhhhhhhhhhhhhhhhhhhhhhhhhhhhhhhhhhhhhhhhhhhhhhhhhhhhhhhhhhhhhhhhhhhhhhhhhhhhhhhhhhhhhhhhhhhhhhhggggggeeeeeeegggggg",
"++++++wwwwwwwwwwwww000000000000000000000000000000000000000000000000000000000000000000000000000000000000000000wwwwwweeeeeeehhhhhh",
"++++++wwwwwwwwwwwww000000000000000000000000000000000000000000000000000000000000000000000000000000000000000000wwwwwweeeeeeehhhhhh",
"++++++wwwwwwwwwwwww000000000000000000000000000000000000000000000000000000000000000000000000000000000000000000wwwwwweeeeeeehhhhhh",
"++++++wwwwwwwwwwwww000000000000000000000000000000000000000000000000000000000000000000000000000000000000000000wwwwwweeeeeeehhhhhh",
"$$$$$$rrrrrrr&&&&&&&&&&&&&============================================================================&&&&&&&######wwwwwwwhhhhhh",
"$$$$$$rrrrrrr&&&&&&&&&&&&&============================================================================&&&&&&&######wwwwwwwhhhhhh",
"$$$$$$rrrrrrr&&&&&&&&&&&&&============================================================================&&&&&&&######wwwwwwwhhhhhh",
"$$$$$$rrrrrrr&&&&&&&&&&&&&============================================================================&&&&&&&######wwwwwwwhhhhhh",
"$$$$$$rrrrrrr&&&&&&-------::::::;;;;;;;;;;;;;;;;;;;;;;;;;;;;;;;;;;;;;;;;;;;;;;;;;;;;;;;;;;;;;;;;::::::>>>>>>>######wwwwwwwhhhhhh",
"$$$$$$rrrrrrr&&&&&&-------::::::;;;;;;;;;;;;;;;;;;;;;;;;;;;;;;;;;;;;;;;;;;;;;;;;;;;;;;;;;;;;;;;;::::::>>>>>>>######wwwwwwwhhhhhh",
"$$$$$$rrrrrrr&&&&&&-------::::::;;;;;;;;;;;;;;;;;;;;;;;;;;;;;;;;;;;;;;;;;;;;;;;;;;;;;;;;;;;;;;;;::::::>>>>>>>######wwwwwwwhhhhhh",
"$$$$$$rrrrrrr&&&&&&-------::::::;;;;;;;;;;;;;;;;;;;;;;;;;;;;;;;;;;;;;;;;;;;;;;;;;;;;;;;;;;;;;;;;::::::>>>>>>>######wwwwwwwhhhhhh",
"$$$$$$rrrrrrr&&&&&&%%%%%%%**********************************************************************------>>>>>>>######wwwwwwwhhhhhh",
"$$$$$$rrrrrrr&&&&&&%%%%%%%**********************************************************************------>>>>>>>######wwwwwwwhhhhhh",
"$$$$$$rrrrrrr&&&&&&%%%%%%%**********************************************************************------>>>>>>>######wwwwwwwhhhhhh",
"$$$$$$rrrrrrr&&&&&&%%%%%%%**********************************************************************------>>>>>>>######wwwwwwwhhhhhh",
"$$$$$$rrrrrrr&&&&&&%%%%%%%%%%%%%oooooooooooooooooooooooooooooooooooooooooooooooooooooooooo@@@@@@------>>>>>>>######wwwwwwwhhhhhh",
"$$$$$$rrrrrrr&&&&&&%%%%%%%%%%%%%oooooooooooooooooooooooooooooooooooooooooooooooooooooooooo@@@@@@------>>>>>>>######wwwwwwwhhhhhh",
"$$$$$$rrrrrrr&&&&&&%%%%%%%%%%%%%oooooooooooooooooooooooooooooooooooooooooooooooooooooooooo@@@@@@------>>>>>>>######wwwwwwwhhhhhh",
"$$$$$$rrrrrrr&&&&&&%%%%%%%%%%%%%oooooooooooooooooooooooooooooooooooooooooooooooooooooooooo@@@@@@------>>>>>>>######wwwwwwwhhhhhh",
"$$$$$$rrrrrrr&&&&&&%%%%%%%111111222222XXXXXXXXXXXXXXXXXXXXXXXXXXXXXXXXXXXXXXXXXXXXX       oooooo------>>>>>>>######wwwwwwwhhhhhh",
"$$$$$$rrrrrrr&&&&&&%%%%%%%111111222222XXXXXXXXXXXXXXXXXXXXXXXXXXXXXXXXXXXXXXXXXXXXX       oooooo------>>>>>>>######wwwwwwwhhhhhh",
"$$$$$$rrrrrrr&&&&&&%%%%%%%111111222222XXXXXXXXXXXXXXXXXXXXXXXXXXXXXXXXXXXXXXXXXXXXX       oooooo------>>>>>>>######wwwwwwwhhhhhh",
"$$$$$$rrrrrrr&&&&&&%%%%%%%111111222222XXXXXXXXXXXXXXXXXXXXXXXXXXXXXXXXXXXXXXXXXXXXX       oooooo------>>>>>>>######wwwwwwwhhhhhh",
"$$$$$$rrrrrrr&&&&&&%%%%%%%777777pppppp%%%%%%%%%%%%%%%%%%%%%%%%%%%%%%%%%%%%%%%%%%%%%XXXXXXXoooooo------>>>>>>>######wwwwwwwhhhhhh",
"$$$$$$rrrrrrr&&&&&&%%%%%%%777777pppppp%%%%%%%%%%%%%%%%%%%%%%%%%%%%%%%%%%%%%%%%%%%%%XXXXXXXoooooo------>>>>>>>######wwwwwwwhhhhhh",
"$$$$$$rrrrrrr&&&&&&%%%%%%%777777pppppp%%%%%%%%%%%%%%%%%%%%%%%%%%%%%%%%%%%%%%%%%%%%%XXXXXXXoooooo------>>>>>>>######wwwwwwwhhhhhh",
"$$$$$$rrrrrrr&&&&&&%%%%%%%777777pppppp%%%%%%%%%%%%%%%%%%%%%%%%%%%%%%%%%%%%%%%%%%%%%XXXXXXXoooooo------>>>>>>>######wwwwwwwhhhhhh",
"$$$$$$rrrrrrr&&&&&&%%%%%%%666666pppppp***************************************&&&&&&XXXXXXXoooooo------>>>>>>>######wwwwwwwhhhhhh",
"$$$$$$rrrrrrr&&&&&&%%%%%%%666666pppppp***************************************&&&&&&XXXXXXXoooooo------>>>>>>>######wwwwwwwhhhhhh",
"$$$$$$rrrrrrr&&&&&&%%%%%%%666666pppppp***************************************&&&&&&XXXXXXXoooooo------>>>>>>>######wwwwwwwhhhhhh",
"$$$$$$rrrrrrr&&&&&&%%%%%%%666666pppppp***************************************&&&&&&XXXXXXXoooooo------>>>>>>>######wwwwwwwhhhhhh",
"$$$$$$rrrrrrr&&&&&&%%%%%%%666666pppppp***************************************%%%%%%XXXXXXXoooooo------>>>>>>>######wwwwwwwhhhhhh",
"$$$$$$rrrrrrr&&&&&&%%%%%%%666666pppppp***************************************%%%%%%XXXXXXXoooooo------>>>>>>>######wwwwwwwhhhhhh",
"$$$$$$rrrrrrr&&&&&&%%%%%%%666666pppppp***************************************%%%%%%XXXXXXXoooooo------>>>>>>>######wwwwwwwhhhhhh",
"$$$$$$rrrrrrr&&&&&&%%%%%%%666666pppppp***************************************%%%%%%XXXXXXXoooooo------>>>>>>>######wwwwwwwhhhhhh",
"$$$$$$rrrrrrr&&&&&&%%%%%%%666666pppppp***************************************%%%%%%XXXXXXXoooooo------>>>>>>>######wwwwwwwhhhhhh",
"$$$$$$rrrrrrr&&&&&&%%%%%%%666666pppppp***************************************%%%%%%XXXXXXXoooooo------>>>>>>>######wwwwwwwhhhhhh",
"$$$$$$rrrrrrr&&&&&&%%%%%%%666666pppppp***************************************%%%%%%XXXXXXXoooooo------>>>>>>>######wwwwwwwhhhhhh",
"$$$$$$rrrrrrr&&&&&&%%%%%%%666666pppppp***************************************%%%%%%XXXXXXXoooooo------>>>>>>>######wwwwwwwhhhhhh",
"$$$$$$rrrrrrr&&&&&&%%%%%%%666666pppppp***************************************%%%%%%XXXXXXXoooooo------>>>>>>>######wwwwwwwhhhhhh",
"$$$$$$rrrrrrr&&&&&&%%%%%%%666666pppppp***************************************%%%%%%XXXXXXXoooooo------>>>>>>>######wwwwwwwhhhhhh",
"$$$$$$rrrrrrr&&&&&&%%%%%%%666666pppppp***************************************%%%%%%XXXXXXXoooooo------>>>>>>>######wwwwwwwhhhhhh",
"$$$$$$rrrrrrr&&&&&&%%%%%%%666666pppppp***************************************%%%%%%XXXXXXXoooooo------>>>>>>>######wwwwwwwhhhhhh",
"$$$$$$rrrrrrr&&&&&&%%%%%%%666666pppppp***************************************%%%%%%XXXXXXXoooooo------>>>>>>>######wwwwwwwhhhhhh",
"$$$$$$rrrrrrr&&&&&&%%%%%%%666666pppppp***************************************%%%%%%XXXXXXXoooooo------>>>>>>>######wwwwwwwhhhhhh",
"$$$$$$rrrrrrr&&&&&&%%%%%%%666666pppppp***************************************%%%%%%XXXXXXXoooooo------>>>>>>>######wwwwwwwhhhhhh",
"$$$$$$rrrrrrr&&&&&&%%%%%%%666666pppppp***************************************%%%%%%XXXXXXXoooooo------>>>>>>>######wwwwwwwhhhhhh",
"$$$$$$rrrrrrr&&&&&&%%%%%%%666666pppppp444444444444444444444444444444444444444444444,,,,,,,@@@@@@------>>>>>>>######wwwwwwwhhhhhh",
"$$$$$$rrrrrrr&&&&&&%%%%%%%666666pppppp444444444444444444444444444444444444444444444,,,,,,,@@@@@@------>>>>>>>######wwwwwwwhhhhhh",
"$$$$$$rrrrrrr&&&&&&%%%%%%%666666pppppp444444444444444444444444444444444444444444444,,,,,,,@@@@@@------>>>>>>>######wwwwwwwhhhhhh",
"$$$$$$rrrrrrr&&&&&&%%%%%%%666666pppppp444444444444444444444444444444444444444444444,,,,,,,@@@@@@------>>>>>>>######wwwwwwwhhhhhh",
"$$$$$$rrrrrrr&&&&&&%%%%%%%444444ppppppiiiiiiiiiiiiiiiiiiiiiiiiiiiiiiiiiiiiiiippppppuuuuuuu777777------>>>>>>>######wwwwwwwhhhhhh",
"$$$$$$rrrrrrr&&&&&&%%%%%%%444444ppppppiiiiiiiiiiiiiiiiiiiiiiiiiiiiiiiiiiiiiiippppppuuuuuuu777777------>>>>>>>######wwwwwwwhhhhhh",
"$$$$$$rrrrrrr&&&&&&%%%%%%%444444ppppppiiiiiiiiiiiiiiiiiiiiiiiiiiiiiiiiiiiiiiippppppuuuuuuu777777------>>>>>>>######wwwwwwwhhhhhh",
"$$$$$$rrrrrrr&&&&&&%%%%%%%444444ppppppiiiiiiiiiiiiiiiiiiiiiiiiiiiiiiiiiiiiiiippppppuuuuuuu777777------>>>>>>>######wwwwwwwhhhhhh",
"$$$$$$rrrrrrr<<<<<<8888888444444****************************************************************------>>>>>>>######wwwwwwwhhhhhh",
"$$$$$$rrrrrrr<<<<<<8888888444444****************************************************************------>>>>>>>######wwwwwwwhhhhhh",
"$$$$$$rrrrrrr<<<<<<8888888444444****************************************************************------>>>>>>>######wwwwwwwhhhhhh",
"$$$$$$rrrrrrr<<<<<<8888888444444****************************************************************------>>>>>>>######wwwwwwwhhhhhh",
"$$$$$$rrrrrrr999999xxxxxxxjjjjjj444444**********************************************************------>>>>>>>######wwwwwwwhhhhhh",
"$$$$$$rrrrrrr999999xxxxxxxjjjjjj444444**********************************************************------>>>>>>>######wwwwwwwhhhhhh",
"$$$$$$rrrrrrr999999xxxxxxxjjjjjj444444**********************************************************------>>>>>>>######wwwwwwwhhhhhh",
"$$$$$$rrrrrrr999999xxxxxxxjjjjjj444444**********************************************************------>>>>>>>######wwwwwwwhhhhhh",
"$$$$$$rrrrrrr555555cccccccvvvvvvffffffaaaaaaa***************************************************------>>>>>>>######wwwwwwwhhhhhh",
"$$$$$$rrrrrrr555555cccccccvvvvvvffffffaaaaaaa***************************************************------>>>>>>>######wwwwwwwhhhhhh",
"$$$$$$rrrrrrr555555cccccccvvvvvvffffffaaaaaaa***************************************************------>>>>>>>######wwwwwwwhhhhhh",
"$$$$$$rrrrrrr555555cccccccvvvvvvffffffaaaaaaa***************************************************------>>>>>>>######wwwwwwwhhhhhh",
"$$$$$$rrrrrrr555555zzzzzzzllllll444444**********************************************************------>>>>>>>######wwwwwwwhhhhhh",
"$$$$$$rrrrrrr555555zzzzzzzllllll444444**********************************************************------>>>>>>>######wwwwwwwhhhhhh",
"$$$$$$rrrrrrr555555zzzzzzzllllll444444**********************************************************------>>>>>>>######wwwwwwwhhhhhh",
"$$$$$$rrrrrrr555555zzzzzzzllllll444444**********************************************************------>>>>>>>######wwwwwwwhhhhhh",
"$$$$$$rrrrrrr333333kkkkkkkdddddd****************************************************************------>>>>>>>######wwwwwwwhhhhhh",
"$$$$$$rrrrrrr333333kkkkkkkdddddd****************************************************************------>>>>>>>######wwwwwwwhhhhhh",
"$$$$$$rrrrrrr333333kkkkkkkdddddd****************************************************************------>>>>>>>######wwwwwwwhhhhhh",
"$$$$$$rrrrrrr333333kkkkkkkdddddd****************************************************************------>>>>>>>######wwwwwwwhhhhhh",
"$$$$$$rrrrrrr&&&&&&&&&&&&&******%%%%%%%%%%%%%%%%%%%%%%%%%%%%%%%%%%%%%%%%%%%%%%%%%%%%%%%%%%%%%%%%------>>>>>>>######wwwwwwwhhhhhh",
"$$$$$$rrrrrrr&&&&&&&&&&&&&******%%%%%%%%%%%%%%%%%%%%%%%%%%%%%%%%%%%%%%%%%%%%%%%%%%%%%%%%%%%%%%%%------>>>>>>>######wwwwwwwhhhhhh",
"$$$$$$rrrrrrr&&&&&&&&&&&&&******%%%%%%%%%%%%%%%%%%%%%%%%%%%%%%%%%%%%%%%%%%%%%%%%%%%%%%%%%%%%%%%%------>>>>>>>######wwwwwwwhhhhhh",
"$$$$$$rrrrrrr&&&&&&&&&&&&&******%%%%%%%%%%%%%%%%%%%%%%%%%%%%%%%%%%%%%%%%%%%%%%%%%%%%%%%%%%%%%%%%------>>>>>>>######wwwwwwwhhhhhh",
"$$$$$$rrrrrrr&&&&&&%%%%%%%%%%%%%oooooo                                                    oooooo------>>>>>>>######wwwwwwwhhhhhh",
"$$$$$$rrrrrrr&&&&&&%%%%%%%%%%%%%oooooo                                                    oooooo------>>>>>>>######wwwwwwwhhhhhh",
"$$$$$$rrrrrrr&&&&&&%%%%%%%%%%%%%oooooo                                                    oooooo------>>>>>>>######wwwwwwwhhhhhh",
"$$$$$$rrrrrrr&&&&&&%%%%%%%%%%%%%oooooo                                                    oooooo------>>>>>>>######wwwwwwwhhhhhh",
"$$$$$$rrrrrrr&&&&&&%%%%%%%666666yyyyyyOOOOOOOOOOOOOOOOOOOOOOOOOOOOOOOOOOOOOOOOOOOOOXXXXXXXoooooo------>>>>>>>######wwwwwwwhhhhhh",
"$$$$$$rrrrrrr&&&&&&%%%%%%%666666yyyyyyOOOOOOOOOOOOOOOOOOOOOOOOOOOOOOOOOOOOOOOOOOOOOXXXXXXXoooooo------>>>>>>>######wwwwwwwhhhhhh",
"$$$$$$rrrrrrr&&&&&&%%%%%%%666666yyyyyyOOOOOOOOOOOOOOOOOOOOOOOOOOOOOOOOOOOOOOOOOOOOOXXXXXXXoooooo------>>>>>>>######wwwwwwwhhhhhh",
"$$$$$$rrrrrrr&&&&&&%%%%%%%666666yyyyyyOOOOOOOOOOOOOOOOOOOOOOOOOOOOOOOOOOOOOOOOOOOOOXXXXXXXoooooo------>>>>>>>######wwwwwwwhhhhhh",
"$$$$$$rrrrrrr&&&&&&%%%%%%%666666pppppp***************************************%%%%%%XXXXXXXoooooo------>>>>>>>######wwwwwwwhhhhhh",
"$$$$$$rrrrrrr&&&&&&%%%%%%%666666pppppp***************************************%%%%%%XXXXXXXoooooo------>>>>>>>######wwwwwwwhhhhhh",
"$$$$$$rrrrrrr&&&&&&%%%%%%%666666pppppp***************************************%%%%%%XXXXXXXoooooo------>>>>>>>######wwwwwwwhhhhhh",
"$$$$$$rrrrrrr&&&&&&%%%%%%%666666pppppp***************************************%%%%%%XXXXXXXoooooo------>>>>>>>######wwwwwwwhhhhhh",
"$$$$$$rrrrrrr&&&&&&%%%%%%%666666pppppp***************************************%%%%%%XXXXXXXoooooo------>>>>>>>######wwwwwwwhhhhhh",
"$$$$$$rrrrrrr&&&&&&%%%%%%%666666pppppp***************************************%%%%%%XXXXXXXoooooo------>>>>>>>######wwwwwwwhhhhhh",
"$$$$$$rrrrrrr&&&&&&%%%%%%%666666pppppp***************************************%%%%%%XXXXXXXoooooo------>>>>>>>######wwwwwwwhhhhhh",
"$$$$$$rrrrrrr&&&&&&%%%%%%%666666pppppp***************************************%%%%%%XXXXXXXoooooo------>>>>>>>######wwwwwwwhhhhhh",
"$$$$$$rrrrrrr&&&&&&%%%%%%%666666pppppp***************************************%%%%%%XXXXXXXoooooo------>>>>>>>######wwwwwwwhhhhhh",
"$$$$$$rrrrrrr&&&&&&%%%%%%%666666pppppp***************************************%%%%%%XXXXXXXoooooo------>>>>>>>######wwwwwwwhhhhhh",
"$$$$$$rrrrrrr&&&&&&%%%%%%%666666pppppp***************************************%%%%%%XXXXXXXoooooo------>>>>>>>######wwwwwwwhhhhhh",
"$$$$$$rrrrrrr&&&&&&%%%%%%%666666pppppp***************************************%%%%%%XXXXXXXoooooo------>>>>>>>######wwwwwwwhhhhhh",
"$$$$$$rrrrrrr&&&&&&%%%%%%%777777pppppp***************************************%%%%%%XXXXXXXoooooo------>>>>>>>######wwwwwwwhhhhhh",
"$$$$$$rrrrrrr&&&&&&%%%%%%%777777pppppp***************************************%%%%%%XXXXXXXoooooo------>>>>>>>######wwwwwwwhhhhhh",
"$$$$$$rrrrrrr&&&&&&%%%%%%%777777pppppp***************************************%%%%%%XXXXXXXoooooo------>>>>>>>######wwwwwwwhhhhhh",
"$$$$$$rrrrrrr&&&&&&%%%%%%%777777pppppp***************************************%%%%%%XXXXXXXoooooo------>>>>>>>######wwwwwwwhhhhhh",
"$$$$$$rrrrrrr&&&&&&%%%%%%%777777pppppp***************************************%%%%%%XXXXXXXoooooo------>>>>>>>######wwwwwwwhhhhhh",
"$$$$$$rrrrrrr&&&&&&%%%%%%%777777pppppp***************************************%%%%%%XXXXXXXoooooo------>>>>>>>######wwwwwwwhhhhhh",
"$$$$$$rrrrrrr&&&&&&%%%%%%%777777pppppp***************************************%%%%%%XXXXXXXoooooo------>>>>>>>######wwwwwwwhhhhhh",
"$$$$$$rrrrrrr&&&&&&%%%%%%%777777pppppp***************************************%%%%%%XXXXXXXoooooo------>>>>>>>######wwwwwwwhhhhhh",
"$$$$$$rrrrrrr&&&&&&%%%%%%%666666pppppp***************************************%%%%%%XXXXXXXoooooo------>>>>>>>######wwwwwwwhhhhhh",
"$$$$$$rrrrrrr&&&&&&%%%%%%%666666pppppp***************************************%%%%%%XXXXXXXoooooo------>>>>>>>######wwwwwwwhhhhhh",
"$$$$$$rrrrrrr&&&&&&%%%%%%%666666pppppp***************************************%%%%%%XXXXXXXoooooo------>>>>>>>######wwwwwwwhhhhhh",
"$$$$$$rrrrrrr&&&&&&%%%%%%%666666pppppp***************************************%%%%%%XXXXXXXoooooo------>>>>>>>######wwwwwwwhhhhhh",
"$$$$$$rrrrrrr&&&&&&%%%%%%%444444ssssssqqqqqqqqqqqqqqqqqqqqqqqqqqqqqqqqqqqqqqqqqqqqq8888888111111------>>>>>>>######wwwwwwwhhhhhh",
"$$$$$$rrrrrrr&&&&&&%%%%%%%444444ssssssqqqqqqqqqqqqqqqqqqqqqqqqqqqqqqqqqqqqqqqqqqqqq8888888111111------>>>>>>>######wwwwwwwhhhhhh",
"$$$$$$rrrrrrr&&&&&&%%%%%%%444444ssssssqqqqqqqqqqqqqqqqqqqqqqqqqqqqqqqqqqqqqqqqqqqqq8888888111111------>>>>>>>######wwwwwwwhhhhhh",
"$$$$$$rrrrrrr&&&&&&%%%%%%%444444ssssssqqqqqqqqqqqqqqqqqqqqqqqqqqqqqqqqqqqqqqqqqqqqq8888888111111------>>>>>>>######wwwwwwwhhhhhh",
"$$$$$$rrrrrrr&&&&&&%%%%%%%******4444444444444444444444444444444444444444444446666666666666444444------>>>>>>>######wwwwwwwhhhhhh",
"$$$$$$rrrrrrr&&&&&&%%%%%%%******4444444444444444444444444444444444444444444446666666666666444444------>>>>>>>######wwwwwwwhhhhhh",
"$$$$$$rrrrrrr&&&&&&%%%%%%%******4444444444444444444444444444444444444444444446666666666666444444------>>>>>>>######wwwwwwwhhhhhh",
"$$$$$$rrrrrrr&&&&&&%%%%%%%******4444444444444444444444444444444444444444444446666666666666444444------>>>>>>>######wwwwwwwhhhhhh",
"$$$$$$rrrrrrr&&&&&&%%%%%%%******&&&&&&&&&&&&&***************************************************------>>>>>>>######wwwwwwwhhhhhh",
"$$$$$$rrrrrrr&&&&&&%%%%%%%******&&&&&&&&&&&&&***************************************************------>>>>>>>######wwwwwwwhhhhhh",
"$$$$$$rrrrrrr&&&&&&%%%%%%%******&&&&&&&&&&&&&***************************************************------>>>>>>>######wwwwwwwhhhhhh",
"$$$$$$rrrrrrr&&&&&&%%%%%%%******&&&&&&&&&&&&&***************************************************------>>>>>>>######wwwwwwwhhhhhh"
};
