/* XPM */
static const char *ground[] = {
/* columns rows colors chars-per-pixel */
"128 128 8 1 ",
"  c #070707",
". c #080707",
"X c #070807",
"o c #080807",
"O c #070708",
"+ c #080708",
"@ c #070808",
"# c gray3",
/* pixels */
"X  X.   X@O   o. @ . +OO +O+O   Oo .  .O.OXOO +  .O+@   O  O #+O      . .XOOO@.@ O+ +O O. .+ .  + O+O. ++O#O..O.OO   .X..X    . ",
"   .# . .O    X.   .  XOO .O .o@X. o X. @+.O.   .  O@+    OO.   .X@+OO.o. ...O+X.o+@.+XO@+ @    X o OO  .  .#XXo X+++ O O.##o O ",
"X X #+ O#O X @ @++ ++  O++  O X O X. X+X #+#+@ . # O. X @O X. @. .#. @o.+ +.X #OX O ++X  .+@  o OO. #.@ X o . . +. X.#+XOO+ O XO",
" @#O# + . oX# @oO@++ #X  O+.X# ..#O@.#+..  X o O+O+o.  o O++ +@+O+O #+ +oO+ OOOO ##  OXX  +X OOO oX .  + X XO o+..@@  +#+@.O O. ",
" +  +@.+..@ OO++  O@ .+# @ .O.# O+ .# #+. ... .O@ +#.X. OoO X @ O+#.+X+@+O  O #  .# @X O  .+oO..   @#O o     O .@#O+@oOX@.  OXO@",
"  O+@X O...oO +XX +++X #+OOOO....  o+o.   #  #.  oX.+O  Ooo.+o.OO .OOo .  o#X#X#+##++#.@.X+o.+ + +..+#Xo#+#.@ o@.#X# .@+.Oo+XX  ",
"  ..XX.+  @OOOXoO O#X+ +#+@.o#+o.OO# #O   .  .O .O.O#O.+O.#.+ ..+## .OO #OoO O+ #+@.oX.o++ +.# o O OOo@O . O.++#O+@@@oo o+ooO.  ",
"O  ++o.O+  @+O  +  @+ #OOo+O++O+o#  #   O     .@ . + O.+O+oO O@#O#OX# O.O O#OO+@ oO @O..oO# o##..o.++@.+O#Xo@  #+X # .# #O+#O  X",
"+.. +++X  X X@.O+o#O@+.@+o# @+XO+#@+@#OO  X.+@+Oo#+#O  .@o@O#@ ++oOX#O.#@OOoo+X @. Xo@ooX+oo+#.+o. ++@O+ @oXOOOOo O .@#o+.@#@ .+",
"#   .X@O # O  X. X.. #+#.# # #@#O@@#   @.. +# @@.+.OoOO  .OXX@+X@@X @#+X X.X# .#XO. oX@.O@# @+  .@#oO .X  #+X . #. #+##X  .. o#X",
" X#    ++o+++@O O++. o.O.X O#O+###O. +#.O  O@#+  X##O.OO#+O+@    #  # #. +.X++@+ oO+#X # O +@#X#o#.O+#+X .X O X.oo+X.XoOX @  O+o",
"+X @. .# +#OO +# .+.X.o+o+OoX..+. . o O+##+O+O +#.@@ .O .# o#.++O.+. +OX X.O+@.  X O@+#+++#o# @XO@OO.@@@.#. ++  O+ o..+ # .#Oo  ",
"   oOOXO OO ++ #O+o#++o+ .+.@@#X#o .O. +X.O+ O  .  #@o .o#oo@+   +.. XXOOX.+## +..+++.. +. #@.+..#@. O+.  o..O X@oO +#@ O+.O +. ",
"O O # @+#O  + X+X##O# +o#o +X  X@# +o   X@X.#O O# O+#@X@@O+@O.o.O O. O+ +OO+@O O +o#@@+@+++ @OOoOO+o#+@o @ #o @@@.Oo ### O##OoO#",
" X #+@#  Xo      @O @X.@XO  . #+ O+.@ o  O.OX + +@ #.++.#.@ #OOO  + .+  .O.O##OO +.#OOXO. +O OOoX+#.o  ..#++  X  .    o  .o.O . ",
" . #O@o X.@#@. .+.X##O###@+.@#.+.  +@X+@o@.#X#X+ ###O Oo... ...# OO+oX+.+.X#X.OX XO###++# XO oX XOO.+X@O#OO# #  @o o. oX@@+    O",
"  X .OoO  O.  O# O O.o+#@#. oO## .O ##O @+.#.++O#O#@@@oo. #O+  + ##@O O # # @ O .# # o@o.#XX.#XO+o .O+X X#OO.#X+   . O+X +.+ ..+",
".. OO o# + O. +.@+ + O+X@.@.@++ X#.O#O++ O@@X + X#..OO+o XO++# ##+ #+ o #OXO #+ X.OOX .+O# #+#o+. OO#O#O @@   + OO.O+. o.#. OX# ",
" OO. X+++ o@X#+.# #.#+.+@#+++ # OO.OO @+ O#+. # o+@O  @#+O+o +@@ #+  O. +.. +O . O +o +   XO  O #+O+OXO  X##O@X O   O.+++ O@oo O",
" . .@+. ..X + #+++#. ++ oo#O #. +O+.  .O @.O O O#+. #O. O o OXOO    @@#O+ O.oOX X X.+.X## O + + @+. .o.++.   # @+.oo#O.+. ###X O",
"+   o.#@+ +.O+ .o.O#+oXo ++#O O@+@.#X. o.O. oX X###..+ +#..+ o#O..+@X O#.+  . +#.  +O++o+ o@ OO@. . ++ #+O+ + @X.@.#@XX.Oo + .O+",
"o XX   oO.O@OX+X.X Oo@+O@+OX+O@O@  OooO.XoOO.XX O+@#OOX.+. .X#O #OO .#O  O+#. @ +  .oX+..O.X +..O#@O+X++ O  O.O  @.o+.OO oo O.O ",
" O.O.@++O.+   o.@@#@o@#.+# O@ o++OoO+o+O@oo + # O  X@  +X +O.@O.o  @.+## o#+O#+O@O+++O#o++@#XOOXX@+.Xoo.X OXo@.@@XOOX.X. X##O O.",
" OOo..+.#+. @.o +. O O+OX+.@#+ Oo.+ #@..O+ +  . OO##O+O@oX@#@X@O@+# # +.#o#O X# @O# .# @# o#..O+  Oo+o@o+O+@O .+.O.#OO.@+..OXo@@",
"++o. OX@.+. O+..X+O o  Oo#. +@@O oOo++@O+.oX###O++##.oX#.# #X+@+@O.o #+#O+ .O#.#..XO.O o++ +.O.### .##+O#.X #. .. @@#@O#+ O#  +o",
". X.++O++ O..o+O+o OX+#XO@ O#.o@ +@o O .O+OOOOX#o o..#O ++X++#O  O ++@+#.# O+ O.O#@O#+#o# O#++O .O O## @O   .  @#@ + #oXX.O@Xo+.",
"  . XOO@.. ++ .  +.  o +X.#@.#X#.## o# @#O##@ +@X+  #XXO#@#@ +OO##+ .XX@# +++ +X O #@@oo+.+oX+  OO.#+X O @O.+X@O O+.  O#++++X@OO",
"o.#+.# XX+XoX ..X+  +.#+#X @+@XO+X o@O++#oo#.@. +@ @.+.+X  #o#@#O# +o+# X   # OXO#.#   ++ OO O#@#++ o+ #@#.O .+O+# XOoO## O Oo@ ",
"  oooo+o  @ OX +     .X.++.#o.O+. X O   #.#+   #O#O+ .O.  + X# .X### #.## X.OoO+ .+@X .@.. @oO . #+.O+@# XX  O  O ..+.OOO #@X.+#",
" X+@ @X@oX O+  O  +  o XO.  .oO@ @ +Xo  # oX  .+O  X #O#.@ .o+.+.XO   O X. o+O@# .  #X#.O. O@ . .O@O+.O+#OX +OO + @ @O+@.+#+#Ooo",
"  o. ##  @ #OO#.XO +.#O..OooO .OoX@#.O+o +@ @. #XOX#+@@@+ O  @ O.Ooo @.+ +++O@+.@+. @ OOOO.OO @ ##O. Xo#X.+o .# ..oO.O o.OO +  o",
"O+oX#  .X   +  #   @ OoXo@+@@  +.@o+  +#.O. .XOO++OXOO..O#.@XX@+@. @ X@X#@ O#.+X. +OO@X.X +  O@@ ++o#+. ...   #O+  .##. #X@+O.o ",
" oX#X XoO OOOO@@.#O..O .  ooX###.#O ..oo. + ..@ X O+OXO .X#XO+. ##..O+++O+o#@#OO+.#o@ooOoOoXO##@ #OO.+#X@+.. o@ +o ..@o+oXo   o+",
"Xoo@ #. +O+.O #+  @#O.#O+@ @#@@O@O.+#O .#O##O +.##OO .++.  X@X@++o+#o OX@+o@@X+X# +#@..O+O.. #@X## #.+X+.o+@ ###O+o  ###.O#+O.+X",
"o@.. . +X ##+O#.O +XO+ X  +@#o oOoO#O oO@ .X .+@.O OX+.o.o O#O .@+o++++.OX@o#O#OX+X+++#O#o @O++# O@o+#  o@+ #.+@+ +Oo ..  +##O..",
"@ @@#o.oXO+ OOO  @+X+.oX@+o  @ .# oO.+ @@ o+@.#. +.. .+X@Oo.XOoO#.O#X#@  @O+ #O+X@+o@X#+O+#+.. +o.##.@#o.O. +o#OX# @#OoXo  OOO  ",
"..  +O#. OO@OO# ##OX+ +X++Xo@OXX++O+#O    OO+O. #  .@ .#. +O. +@+X +@X.o.+O+X +oo@.o+#.+#. .+.XXX O.#.X#oX+X +@ #X#+ X+# .Oo O. ",
" + O+  +oO. #O@   .  .o# X @..OOO #.OO +# OO.. + .o@O+o# X  . O.@@@#OOO+@X.#+++o# O #o ++  OX  .O  +.O#  . .+oX.OOO#. ###+ OOX +",
" oO@o #O++ Oo+X@ O .o O.    X+ +O O X.XOX.#  o+OO. .  . ## o +OOo  #+  oOXX@ X+@ @ ++XX+O. .+  . .. + +oX  X@+@.. # X+#+@.#@ O  ",
"@  @@X  ++O  .O #O# .O @@..O .+O OX #  o#O#+  X#O#O.#@  ## @O#+ # ++X.O@ +@+Xoo#. # .#o+ OO  +X#..@OoX +X.+O  X#oO+XX#+#+ .Xo# .",
"OO@ooO++X #O## #..OO .+ +O..#O++@.oO@+OO o# #  o#+oO@#O+ ++@#X# # #X+Oo+ OO   +#+.XO X# .+OX Oo  +#.#.O X#.O.+#O.Oo+ .## ##...  ",
".oO #.#o#X. #.#+..  ## @+X#OX.#O..  O.o.X@o +#+#o+ .o@@ ..#.@+#@+#O+.O. #.  X@ O#O#.+#+oO .#+@O X@#.O++++OoX# OX  +Oo+. + +##O X",
"   #++oO o.X. .X+O o @+ #oO+ XO OX+.@#.@X@#O+. #Oo@O  .  #.#  ++o@X#O#@o Oo O+OOXX o.+#o X.OO@  X@#  #  XX+OO+X@oO#+#++ OOOoO  X",
"X+#O # ..X ooOO o.X +# .+OOo @. .o.O@o@ O O . #+o#.#  OO .O+ #o+ O.  @.O# ##o@ +o.  ++#X .+  OO  @ XOO.XOo     @OO+ O#.+ @.OX#O ",
" . O O ..O#O# #+  OO@ +O  +.++#..oXoOo+O++ +.O. ##...OO OO. +#Oo  XO .# O@.oO +.+O+++.O OXo#o+# O+O#@+#o@@  OO..O+ O.@ @+ O  O #",
" ..O@ #.+X@ +.O . O#X+ + .  .##O@. + #O+#OoXO#O+.#O#O@+ O@X+ # . .# #+OO++.+X    O#+@+O. o+.@.#O+O  O ...+. ++O+oo.OOX...O@ .X#+",
" O#.+O...o oOO.o. .@ . +  #.@#.# XX  X   ++@+ ++O .OO#O . @X.+ +  ++Oo@ . OXo.#  +XooO+ ooX.+O# ..o+oo@  . # #..OX.#.+.. o   O.#",
"+    @ + . + ..@O +oX+ O #@XO. .@..  O. +O. +   #.+#O.#.#o#  ..X  +...o+.O# #@.O+@ o.OX +o#O .  O+O#X.@OX .O@+ ..XO .o  O + o.. ",
". .O#+OO+#  X +@..  OX   ++ X +  O @..O .XOo. ++#o + O@# O#       .OOO .o+. .#..  X+X  .O#oo+X@   . +.O@Xo+o  X.  o + XX++# o +O",
"  X#oX@#. +O+@.  O oX++. O+ ++@ OX..# .O#@+.+o.O ##o   #. X O#. + XO .+  oO  O.    # +@oO   @@OO+#. o@@ +O # ..+##+@+o .+.  # .X",
" O OoO  +X.   OX#o@++o O.O@+.OX.+ #X #X +   X+. O+  @ @.+  .#+.O  #OO+# X@XO+. ##.O ##ooO@+@.+##X+OO +X@ +@#OO..o +O.+ @X#.o@+ #",
"O X.+O  Xo  .+@+.#@..O.+OO+OO   O. O  OO +X #OX OO O+X @ @  O   X@    @++O+o@O.+ OO  O@X.O O .+O.O#oX@ O#..OO.O+O+  O#..#oO#O  .",
"   O @O O@. .+.+@.+@ XXXO. .o#+# OX.o  +OXO X+o OOO+@+ O.OO  .#+X .+ OO+O# #+o++@+ +o O @.@OO@ o.X  O+.O  O.O#X   # X ### +X OOO",
"OO.+ + ..+@ + o+ +Oo.O. .     O++ .O#oO+O.O+ #..++#   o@ + .+o+ #.+O@ +  #.X+@  @#X. OX ..  O O OO O XO+++   . # # X+O+.O@.+.O..",
"  ++  +.+ ##O+   @..O   O.##ooO +..  #+ #+O.. +.+o+@ O . ++ @ +..+. O@ +O+. ... X+  +OO##O.. O ooo  X+X #+ O Oo@ +.@..#+#O + + O",
"  O+@oo#  .@#  ..  .#+ X+OO.o .+O@o X#.O. . @ .+.+ . +   #+OO#  .  .. O +o  O@. X@X.+o.XO# ++# +  X.  ..##+.  @+@ o.O  OX@O+oO +",
"#  O+#O..O.++O +o.+@Xo#+@Oo# oX@.#@ O.O + O. ##.  @O .++@O+XO##  O O.Oo. .+Oo #+oX  .+X+  .+#+  @ @ +#@++  O .o.+ .++O #+. +. OX",
" O.  o# oX.X   +@  .O@ ++ +X+OX+oO.X+X.++@OOX. +#+X   @oOX #+ .+@  X Xo #.O @#o.OoX OO.#+O@ O#..@.@X O#o.Xo+ +O  .O#+ # +++ OO O",
"  .#o.@+ O #oX. .XO X@+ +..   #. #+ X o @+@.+ #O##OX  O @#o XX +  . #@.#+O+#O  .O# ..# o ..#Xo.+X.++.++oO.o .Oo.XOoOo O.#O  oXX.",
". + #+++  XO+@O Xo +O . ++O.o  Xo+.X.  +.O@ X.. # X+# X OX...XO. #+#..#++O O + OX@.   @+X+ O# O.     O.++ X O. OX@X O# + .O+XO.@",
"O   ooO.  .  O  ++..  O +. o  o    XOX  X+  X+  O oX.  +#  +  #   Oo o. .X #+#O  # .  . @+O O   #   #+#  o o@O.     . O+ X+#. +#",
"   #X++O+   + . # OoXO@o@ X . O .++    X O@o # ++X.#+#      +@@       ..@#   + X@+O.OX .X. oO+ X.O@ ### O..+ @ @#.X + +#  #@ .O.",
"O #O.+@oX@o.O @.X+ o@  .+O@+.@  X.  oX #oO #.XO.+#@    +O.+O+OO  . +# + .X#  #o@ # X+ .O..OooO.   O..X#OXO. +O..+ O+@OX oO. O.O#",
" . # O ++  O# o#+o    .OO.+.O.@#.@..XO. #.o..o+O++.#. .@  @.#+++ o##@X#X  XOOO+.#.+ +#X +#O @@+@ .O... @XOO@O   @..OX #  #+oO oO",
" XOOo+..@OO.o  +.. OX#.++# +o #+@XX#O+#X#..@  . o+@OX O#++. #O+ O+#OO   .# .#.#O+@..@O.@..+X..OOO@O+@ O. OO+ +.  OO #+#@+o.o.##O",
"X+@# o .+O   O O#. #O  +. .OX+O  O #oXX X@  OOOO.++o+X@O   X  O@ . +O+o #o  ..+O oo #..@ O.  .OO. #  + @oo@OO  +   +X@# +##O+.@.",
".@#Xo.+ + #+..#   X@o  @.. # .+#O X.##O+.X #O. + oOX+.. +. .X+. . .O.##OXXO.oO+O.OO..  +@++O .O+ O + .++@@o  +. . .+O..X.O+@oo+X",
"   X@ O#O  @@ +@#X@ @O+  #O+ +## O  O @ @ @  ... . +o.X  O @ O.@@o#O . OO@X  +..O# .. X   + .   O +@ +O. X O.. O+#  . O+O  X+oX+",
"X.+o+@#++ O +O+. OO#+#.#O###OOO..XO  O.. O.++.  ...O@   + .  +. .+  OO #.o o#O  OO@   ..O .++O   # +.O @X.ooo @O + +@ ..X.. XO .",
". @ OO+. +X+ O..O+  +o#.# oo++X+. +@O Xo..O+.X .+#O.O#o+#O.o.+Xo #O . .+oO+@o O O O+O. .@OOO#  O+oOO+ ##oX@O. o .+  .XO. +##O#X#",
".# +#+#o  #+O+ #+ X.O# +. +X.oO  #+O++  @ .@O .# .+#OO OOO Xo O# o #o.XOO+ X@O+ .+OO.+ #OX# O++@+X #.#+@.##@O+O #.o.+o+X X.@O  O",
" + o##X##+.## .++@+O.o.O XOO .+ @. +O OOO  +.@X ++.@O..+oo . O. + O. @@ +++  .o..O++ O#oOoO+O+ O+ .. +.Ooo+#+X O ++O @#.X # .@@ ",
" X . O+#o@ OO  +++ O o+@#.+ ..OOO.. O @+ +# + OoX#X#+ X ##O..X. ++ X+ #o. O.+OO+.o.X O#.#O+X..O O+ XOXo.+ # @.o ..XOO@..+  .oO.O",
"O  @oO +OO@.OX   .OX. X .##@  .++++.@@O+#X.+oo@O  #X...+#@# oXoO o@O ..++@    .O.@ X  +o+O# O. . O+@+O OX .Oo   oO.+ O  O+##o..#",
" OO+ X.OO O .+ +  X+.#@ + +X++ ++OXoOO# . ++.#+X.#o ...    X+# #@+ O O..oo oOX +++  O#.# +Oo o.+OoXo +..@@ X .o#.@.   #+# O . #o",
"O+.O# .o##+ ++oO++ O.# O o.O+.OXO XXOo@O.#OoO#OOo.@. +. @+O+ #OXXX+O.X OO+ .#Oo+ XOoo oOOo+OO O#O  .+@oO+. OXOO+X .@X oXO+.#.X .",
"X.Xo#.#.oXX+OO .++ #+@#++o++OX.oO#O.  ##o  X##+#oO O  @+XX  # @ + +O.O# #O OO#  o OO@# + #XoO@#O +o+# O# @ +.OO+..#.Xo.@.++## +O",
"+  .oo .#.@+O+O +@OO@ +X@.oOX+X.@@.@o+X.X+  @   .O@#+OOO.@@O O O.  o+X# X + @o+ ...#+..+.# + OO  o   .o#O  ...#O@O # ##@O+  +.  ",
" .o+#.  .X#  .. .X.O.O. Xo OO.  +# OX .@ +. .oOO   X..  O oO.XO@O+ .O.o +@o +O +O.O @.  @ O# +  O+.O. XX. O    #OO +Oo.. .. O.XO",
"   . ..#.. O  +.+  +@+ #.X.O o+++  o+. +O@ + o    O..o+..O O. .   ## +.+@ ..+#  oO#o #  # o X+ +.#+++OXOO..+  O+.+#+  Oo.O X.OO ",
"   Oo... +.OO .+ O#. +X@  oX#. o.#X@ X.XXO + +# @oOO + ++  # O.o++ ++#+@O.O  .O#+ Oo.+ .. O  O O .#o+ Oo. + OXO O O+X+XXO #oXX +",
"+ .+o.O.+OXO @o@@. O oO +@X##+#o+oXO@+. +O# +@#. #X# # O#..X O . +@O O#X+oX+@ XO#++ @O XO. # +XoO@+    #+X@ ++ oO#o@o.@ @O.X   #",
" +@X#.o. # .  .   # #  @# #.@O.O  O+.+  X @X+ X#. OO+O    +#  .OO  + ++@#@ OO.Oo+O.+@+@ X.  X..O O  .O X#OOXO XX@+XX OX X @  OX.",
"X o  ##+.X.O+ +X#O+#O +.O+O .#..@   Oo++X.o.#o@ ..@ #.@ .+@.o# O#+oX+.#@ @oXo X.O O+.o    +@#.O#XO   . OO#+X O. o   X.+ OX+..@.X",
"O+  .X O+Xo+ X +#O#@X  O# .o O.o+@ +# OXOOO @OXX + @  XX.+  #+ #oX. O + O+ OOOO+O+@#. +@oX#+  o+ .OoO O# O  X . .#.+O+@. .#. XX+",
". ++#.O.oO@++X++#.. .O#XO  .O..#o  ++oO+.  OO@ ..Oo X#+. O+ .@..o#+O+.O  O .. . Oo.@@+  +.O.o +++.#+.  Xo  +. # . +o  #...@O.O+O",
" X .+O .#Oo@O .X@XO  O.O..O.. # +  + X X##OOX +OX O+OO OX@ X   .O    X@O#O.o+. XO@O.  @  ++ @.OO  +O.OX#  @+ o#.  .  .O @#.#.O. ",
"X@ + +X +.OOO.#..O#.  #+  o#     .o  #O@@+O# @#O+ X o#.O.@OO #+   #+@+.+++XO#++.@#O .@O...o.X ..X .OO O +O  XXOOXX  +.#X  + Xo+ ",
" . XoX O+OO..OX.   X.O  OO#.X#+ o#@X.  O@ O.@##  # +o+  .+  O.o..+o+ X O .   + O+.+X.@.OX+ +# #+X O    ## Oo.   .X  O +..O@.# O#",
"   X# OOo.@# @ +.oO O#@XO# #+ +.@ X ++#X oo ..@++++ @ O#@@O  XOo#  .@O+Oo.#+ O+ XO O#O..o.O#O. O.#O++ ..@@ .. #XO+X #OO...  .o+.",
"  @XOOX OX.+ o .. X. +O +. .o XO # o. OO  +O#.O+O# ..   . .o .@o +..X @+# . O     .@ X+  O  O++ #.   +   oO  O+@o#o OXX   X.o.# ",
"    .+# O@+.O.O O  O O OO#+  #+# @  .X#+O   @ X OO. o+ +   XX @  #  o  O  OO..+o o@     +#.o OXo.O @O.+X O .OO  +#     .O# X   .",
"# X @ .O#O.X .@+@. o. + O++o X.++O .  O+ .+ .O...+O @O+ X @+ @#..O#+ @ XO   @@. O+. .X # O +O+ O@  +O   X#.XOXO@X@O  +  .O @    ",
" Oo.+..O+# X#O   X.o++Xo XXOXOOo. X.O..+ O  .+ O ++@ XO . O OX.  .  O+@ O@+OXX.@O.X#OO+XO+O  oO+O #+OXO +O +o .      +  OOOOO   ",
"   XXO+O#.  .  +.o O #.O ++ .X. .OXOO   oO+  +.+@+X+ .@+O.  .O++#  O O#O+OOOOO  .  XO.@+.+.OooO.+X+O+   o    o+++ .. oOOO  .  +o",
"O.+#. #O OO +  +.#  #X+O#.X#... +O +@  .+@.OOO+O     .++ o . ++X XO .+..+#+O+@ @ . OO  + +@+ O+ .@O@@. + XO#O+  O  O O.O o+O#OO.",
". #O.@. #OoO o O  O +. #.+ . +@oO+X oOX @  +.X  O+ +.. O.. #XX @ O... .OO.@.+.OO..@.O . X  oOO@ # O++.+  X    .  @X  X .XO#@ O  ",
"XX+.#.  #OOO@ + O#. O  O+O  .O#+..O.      .X@ O@.OX.O#  O@O++O+.O..O.#  #O#oOOO#OO+++o@O O+##.O#  +  +++oX+@O..+O XOXX .oX#+ X o",
" OO # .O .O # #.++oO@  .OO.OO@+O.+.X +XXX.+ # .+@+.O + OO +o. .+.. .o .o+O+Oo+ oXo...+ ++ .  .X OO+. X..O.@X  @+X+.+O#@O# .+O+# ",
". .@   +X . ..   @ + + .Xo# #+ ++OO O+.@  #+  Oo Oo+.+O.+oO O#X@  O...O o+#+ XO    O@  .@  @O  O  O  o  .. OX O. .++   . X  .X  ",
" .X.. +o.  +@ +X. + . .+O  #@ O+OOo  OO +.X+   O+ O  .+   ++++O + O.+   .  . @. X Oo#++O .  #oXX      OO++  O +  O  @ O.X O +O X",
".#  o#O+@ O.+ + +XO. @.@XO@O+ X .X ++X X++Xo@.O.+#.  O@..O+ .O+   . O  + o@+@o#+.+#oo.  +..+@+ .+ O  . X  X+.+O.Oo@  #++o .#XO+ ",
"..OX@OO .@ O OO#.OOOOO+ #O.X  .@ +O   @ooO+. @  X. +OO.OO##O..@ o O.o+@ #X#+O.@o .X O+ O.#OO     + #..O@ oO   OXo OoOO o  .   O.",
"   #+@@ + # #. O O@XO@ #@+ +o.X .XO#.#O@+@+X#oO.X+X#   o.o+ ..++O+ #  +.OXO O@+OX O O@oO@#  #O  @+++@O++#+  #o .#@ @ #oo+    +.+",
"..O +O..XX@ # # .#O@XO# O X+ O  +O@Oo #.Oo+ O O+ Oo#O.O#..  . .+X..# +.o#O#. X+X.X +O@++. . # O .X.O.# OOOOO  X+O+X + .@ @@XOX+ ",
"  X+@X X+.O o+ +. + +#+o## +@X ..+OOOO O + +#X. X+.O.X  .o#O XX.o  @ o@++O++ @O oXO.+++ .OX@ o#.o..#@@+.o@+#  .@@+ @++ Xo++.# O+",
"  +#+..  @+OX+Oo+O++.O  X X@#+ .. . OX . OX@  ++@OX# .+ @X X O +++o. .o#O.+  . .  ..+ o + ..XO+O  .+O+ . #+O X o# +  @+ OX +.X  ",
".O+##OOo+#O  + OOO +.o .X+ #.+#OOO@ +O . #OO ++ o+@++o.+OOO+  @ O +o+ooO+ OO# @O OO.XX.X O.+Oo.@ Oo o#+ X@@.O #. .X ..+OOO.o#  @",
"O  @   O@.o.OO @. @ ++ O++++  + @OO.X OO. #+@+ X .  + + . O  #+  @    # ++  .OO.O   . .X@O.X # X O    @O X. +.+   o. o  X. .+O .",
" O XO X . oX   @++  O+# o++    .o+o# X.@  .o +O @.# O  X. Oo  . #+.O.XX +   +..@ OO.#+ o @@#O +++O++ o..   . .#OooO+ +o#+#+     ",
" O  O+  + X + o +O.+ O #.OXO..@ OXXoX+   @#X o #++ @O XX O @X+#o. #O +@O+oO+@O .  @.@. Oo+o  @XOO.#.+O .+Oo .O  @..O + @. X OO +",
"@..+  .X.+ +Oo#o+ +OO+O OOO@. O +@X..Xo +#+OO@.+.X+.O o O o +X@@O...+++ooo+  O#.+#. o  +++ .  @#+oOO#X.OOo+   .OX#+@XXo ...O++ O",
"X.   O+X+ # O@+@.O.#+.@ O +##oOOO .OO #  OO.#   @XO +O O@@O# oO oXo.#. ..OOOOX@+   . XO@#O.O @X  oX XO# #+O@ #++O# + @+. + .OoXO",
" + . OO.oX@   .++ +X O+.++@O  #+.. + .#O#X@ +O O + #.@+O#O  @ OX#O#X X .+Xo++.@..O     .# o+@+. +#.o##X  O..# O++#.##@+O++OoOO .",
"  XXo.  . X #  .. @ +oO#  .#  @+ #.O+oO O++@. OX @.o# OX O  XOX..# O.# XO ++O##.X+ X.@@@+++ oO.  OX+Oo+OO++ .#O@Oo++ O+O##+#X X ",
" XOoO . #+XXO  X+ Oo +O .#+oX . X.. X@ @+    # + o# +..o# +@.o OO.OO X  .X  OO+O O.O.oO+O +..O.+@o XX .OO + @  O++. #X   O# . OO",
"ooO.+O   #O#OX.X.## # o..@+O O.#+.OX .+# X+.@  .+O oXOXo+X  .#X+..+@..XoX.O##@ XOOO @   #+ o O#.  #Oo+@ O+#XOO## oo X#o.#.OoO OO",
"o. oX@O+.##.O #.#O .+#.  oO.oo+OOo+ O.o. X#@  @ @.   .O++.  .+ O+ X o+ +.+#.O+ O     +   X@ @.o+.XOO.OX+ +.o.. X.+# # o+ o@O .o.",
".  X.O  O# O.@.O@.@X  oOX#.+O #XO+ O+ + OO + O+@#.++@ X # .XXo .o @ #OO.XOO+O OO#@ O+ OX.+ .@o ... .OO #+OO  @# Oo .+XO.@ @#X  O",
"O .O..O.OOOX+ @oo  OoO #O# o +.@ OXX..#X.@##.O  +@#O+XO  . O # .OO..O+  O +O#+oO  .OO@++O ++o#.+O o  O X X@# OO@ X  O.  + OO  O ",
".  + @o XO@#+O@O.  @ #+OOo.O  O+O+ #O#+  + #   +OOO OO #XOXO.+@+  O +#@+O..  O # OO+.      +oX# #X.X.       @O+O @#O O.+.  +X#  ",
"    O+OO  . + #+#.+XX+.  o#  X#.O#  +o .OO+oO  .OOX++..  + +     +o +O.ooO  .O. XX@O.OO.Xo. .O  X.#. o # .  .X@O    @ #..@Xo. . ",
"  XO+O.# X +O + @o O++o#.. OO+O.OO  @.+. o O ..OO#.O..+.O+Oo O   .O.+.O.O+     .X   O X++o+O+OX   o.# + +O    @o  @  #.XOOo.O@.O",
".O +..O.X+ +XoO.#o+ .Oo.. XO  oO+   O.. @.+ O @.#O+O. +.@ #.. +#O# .++O+ o@++.#+#X. ..@O+X+ #O O X  +O.X O @oOX  O.. #+ #. o .+O",
" ..  # . +#O++X# +.. ++++#X ++#+ + X+  XOX.@.O  # +  OOo  @.@ Oo.@+O.oXO  @O #O +. X + +O.++# OO+ O.+ o .O  O+.o @# X ++Oo#  O@O",
"OX o+ @ o  ++X#O  ..+O++.#@ ++OoOXX . ##.@OXo O..+o@o  o +O.X.O .+o#. @O+.@OO#  #O #XX@ +.X#o# +  O X   # + + .oO+O@@oX.++oX.   ",
"O . O X .OO X O +  O # OX o +.o .O+ +O. # . .OOX  .O  X + +  @++   o   O o     .X+   @+OO O+    OO... O     O.+@ .   o+  @o @ OX",
"O   ..OO O  @ . OX . +   O  X  .   . +O  @ @  O O O #+ OO    X.  O    OO. O@   OX  X.O OX.  OOO     .O . .XO#  XO+o#  oX . XX  O"
};
