/* XPM */
static char * ground_sprite2_xpm[] = {
"32 32 99 2",
"  	c #BDBDBD",
". 	c #BCBBBC",
"+ 	c #BBBBBB",
"@ 	c #B6B6B6",
"# 	c #B5B5B5",
"$ 	c #B7B6B6",
"% 	c #B9B9B9",
"& 	c #BCBBBB",
"* 	c #B5B4B4",
"= 	c #BABABA",
"- 	c #BDBCBC",
"; 	c #B8B8B8",
"> 	c #B6B5B5",
", 	c #BCBCBC",
"' 	c #B4B4B4",
") 	c #B2B2B2",
"! 	c #B3B3B3",
"~ 	c #BBBABA",
"{ 	c #B7B7B7",
"] 	c #BAB9BA",
"^ 	c #BABAB9",
"/ 	c #B8B7B7",
"( 	c #B3B2B2",
"_ 	c #BAB9B9",
": 	c #B2B2B3",
"< 	c #B3B2B3",
"[ 	c #B2B1B2",
"} 	c #B4B3B3",
"| 	c #B2B1B1",
"1 	c #B6B5B6",
"2 	c #B9B8B8",
"3 	c #8D8D8D",
"4 	c #7B7B7C",
"5 	c #7F7F80",
"6 	c #7B7B7B",
"7 	c #808080",
"8 	c #888889",
"9 	c #828282",
"0 	c #7D7D7D",
"a 	c #7E7E7E",
"b 	c #7D7D7E",
"c 	c #7D7C7C",
"d 	c #7A7A7A",
"e 	c #797979",
"f 	c #7F7F7F",
"g 	c #8F9090",
"h 	c #575757",
"i 	c #030303",
"j 	c #030304",
"k 	c #040304",
"l 	c #040404",
"m 	c #646465",
"n 	c #B1B1B1",
"o 	c #5F5F5F",
"p 	c #030404",
"q 	c #626262",
"r 	c #5D5D5D",
"s 	c #606060",
"t 	c #646364",
"u 	c #656464",
"v 	c #656565",
"w 	c #B7B6B7",
"x 	c #636363",
"y 	c #616262",
"z 	c #616161",
"A 	c #646464",
"B 	c #636364",
"C 	c #676767",
"D 	c #B5B5B4",
"E 	c #6F7070",
"F 	c #717171",
"G 	c #B9B9B8",
"H 	c #6F6F70",
"I 	c #B3B3B2",
"J 	c #B3B3B4",
"K 	c #B0B0B0",
"L 	c #6E6F6F",
"M 	c #B1B0B0",
"N 	c #6D6D6D",
"O 	c #6E6E6E",
"P 	c #707070",
"Q 	c #545454",
"R 	c #707071",
"S 	c #959595",
"T 	c #919191",
"U 	c #909090",
"V 	c #8E8D8D",
"W 	c #8F8F8F",
"X 	c #8D8C8D",
"Y 	c #908F8F",
"Z 	c #919090",
"` 	c #8D8C8C",
" .	c #8E8E8E",
"..	c #8C8C8C",
"+.	c #9E9E9E",
"@.	c #B4B3B4",
"#.	c #BBBABB",
"$.	c #B5B4B5",
"%.	c #BBBBBA",
"  . + @ # $ % & + $ @ * = - + ; > # ; + & % @ # $ , + , # @ # , ",
"+ = + ' ) ! % + ~ ' ) ) { ] % { ! ' > + % { ! ! # ^ % % ! ) ! + ",
", % + ' ' ! / = = ' ) ( @ _ ~ @ : < # _ ; { ! ) @ = % = ! ) ! = ",
"# ) ) % = & @ ' ) { ~ = { ! ! @ % _ @ ! ' @ = % @ ) ' ! % = ; # ",
"# [ ! ; = = $ ! ) ; % _ { ! < @ + + ; } ) @ + ~ $ ! ! ! = = ; * ",
"> ! ) ; + % @ ' ! = = = @ ! | { % = @ ) ! 1 = = ; ) ! ' = = 2 # ",
"= / { ' @ 3 4 5 6 7 8 9 0 a b c 0 0 0 d e 6 0 f 0 e g ; # $ # 2 ",
", % ; ) ! h i i j i j i i i k i i j j j j i j i l i m = ) ! ! , ",
"+ = % ) n o j i l i j i j i j l j i j i j i i j l p q = < ) ) + ",
"; # ' @ # r i i i l j i i i i j j i i j i j i i j i q # @ { @ ; ",
"@ ! ' ; % s i i i i j i j j i i i j i j i j i j j i t ! % ~ = > ",
"' ) ! % = u i i i i i j j i i i i j i j i j i i j l v ) = = + @ ",
"; > # > w x i i i j i i i i i k i j i i i i i i i i y * { { @ ; ",
"+ = _ ! ) o i i j i i j i j j i i i i i i i i j i i r 2 ) ( ) + ",
"& = = : ) z i l i i j i j i i i i i i l i i i i i i o _ n ) ! , ",
"% $ { $ @ q i j j j j j i i i i i i i l i i i j i l A { # # # ; ",
"* ' ! = % A i j i i i j i k l i i i l i l j i i i i B ) + ^ = # ",
"# ' ' = 2 v i i i i j k i j i i i i l j j i i j i i o n = = ; # ",
"{ ! ' % ; v j i l i i i j j l i i i i l i i i i j i C ! ; ; ; D ",
"& = % [ n s j i i i l j i i k i j i i i i j i i j i E = ) n ) + ",
"+ % _ ) n o i i j i i i i j i i i i i i l i j i i j F G ) ) ) ~ ",
"= { @ ) * s l i p i i i i i i i i i j i i i i j j i H { I J ! % ",
"# K ) ; = x i j j i j j i j i i i i i i i i i j i i L ) % = = # ",
"# M ! ; = x i i j i i i i i i i j i j i i i i i i j N n % = % # ",
"{ # ' @ % q i i j i i i i i i i i i i i i i i i i i O ! % 2 { ' ",
"& ; % < ) h i i i i i i i i i i i i i i i i i i i j P % n ) K + ",
"+ = = ! n Q i i i i i i i j j i i p i i i i l i i i R % n ! ! + ",
"_ ; % ! ! S T U U U 3 V W U T X 3 W Y W Z `  .V ..Z +.{ ( ! } _ ",
"# ) | ; _ % $ ) @.; % = @ ! ) $ + ] { n ) @ = = @ ) ) ! ~ ~ % @ ",
"# n ! ; % % ' ! ) % = = { n ! @ _ % @ ) < # + _ { n ) < #.% ; ' ",
"1 ) ) % % % @ ) : % % _ @ ! ! @ = = @ < : # + = ' ) [ ) % #.; @ ",
"+ + ~ $.# > = %.+ / # $.% = = / * @ ; , , / ' @ { + , + > # # = "};
