/* XPM */
static const char *item[] = {
/* columns rows colors chars-per-pixel */
"128 128 40 1 ",
"  c gray10",
". c #1B1B1C",
"X c gray11",
"o c #1C1D1C",
"O c #1D1D1D",
"+ c #1E1E1D",
"@ c #1E1F1F",
"# c gray12",
"$ c #202020",
"% c #212021",
"& c gray13",
"* c #222121",
"= c gray59",
"- c #979797",
"; c #A2A2A2",
": c #A4A4A4",
"> c #A4A5A5",
", c #A5A5A5",
"< c #ABAAAA",
"1 c gray67",
"2 c gray68",
"3 c gray69",
"4 c #B2B2B2",
"5 c #B8B8B7",
"6 c #BBBBBB",
"7 c gray74",
"8 c gray77",
"9 c gray80",
"0 c #CDCDCD",
"q c #D5D5D5",
"w c gray84",
"e c #E6E6E6",
"r c gray92",
"t c #ECECEC",
"y c #EFEFEF",
"u c #F3F3F3",
"i c gray96",
"p c #F5F5F6",
"a c white",
"s c None",
/* pixels */
"ssssssssssssssssssssssssssssssssssssssssssssssssssssssssssssssssssssssssssssssssssssssssssssssssssssssssssssssssssssssssssssssss",
"ssssssssssssssssssssssssssssssssssssssssssssssssssssssssssssssssssssssssssssssssssssssssssssssssssssssssssssssssssssssssssssssss",
"ssssssssssssssssssssssssssssssssssssssssssssssssssssssssssssssssssssssssssssssssssssssssssssssssssssssssssssssssssssssssssssssss",
"ssssssssssssssssssssssssssssssssssssssssssssssssssssssssssssssssssssssssssssssssssssssssssssssssssssssssssssssssssssssssssssssss",
"ssssssssssssssssssssssssssssssssssssssssssssssssssssssssssssssssssssssssssssssssssssssssssssssssssssssssssssssssssssssssssssssss",
"ssssssssssssssssssssssssssssssssssssssssssssssssssssssssssssssssssssssssssssssssssssssssssssssssssssssssssssssssssssssssssssssss",
"ssssssssssssssssssssssssssssssssssssssssssssssssssssssssssssssssssssssssssssssssssssssssssssssssssssssssssssssssssssssssssssssss",
"ssssssssssssssssssssssssssssssssssssssssssssssssssssssssssssssssssssssssssssssssssssssssssssssssssssssssssssssssssssssssssssssss",
"ssssssssssssssssssssssssssssssssssssssssssssssssssssssssssssssssssssssssssssssssssssssssssssssssssssssssssssssssssssssssssssssss",
"ssssssssssssssssssssssssssssssssssssssssssssssssssssssssssssssssssssssssssssssssssssssssssssssssssssssssssssssssssssssssssssssss",
"ssssssssssssssssssssssssssssssssssssssssssssssssssssssssssssssssssssssssssssssssssssssssssssssssssssssssssssssssssssssssssssssss",
"ssssssssssssssssssssssssssssssssssssssssssssssssssssssssssssssssssssssssssssssssssssssssssssssssssssssssssssssssssssssssssssssss",
"ssssssssssssssssssssssssssssssssssssssssssssssssssssssssssssssssssssssssssssssssssssssssssssssssssssssssssssssssssssssssssssssss",
"ssssssssssssssssssssssssssssssssssssssssssssssssssssssssssssssssssssssssssssssssssssssssssssssssssssssssssssssssssssssssssssssss",
"ssssssssssssssssssssssssssssssssssssssssssssssssssssssssssssssssssssssssssssssssssssssssssssssssssssssssssssssssssssssssssssssss",
"ssssssssssssssssssssssssssssssssssssssssssssssssssssssssssssssssssssssssssssssssssssssssssssssssssssssssssssssssssssssssssssssss",
"ssssssssssssssssssssssssssssssssssssssssssssssssssssssssssssssssssssssssssssssssssssssssssssssssssssssssssssssssssssssssssssssss",
"ssssssssssssssssssssssssssssssssssssssssssssssssssssssssssssssssssssssssssssssssssssssssssssssssssssssssssssssssssssssssssssssss",
"ssssssssssssssssssssssssssssssssssssssssssssssssssssssssssssssssssssssssssssssssssssssssssssssssssssssssssssssssssssssssssssssss",
"ssssssssssssssssssssssssssssssssssssssssssssssssssssssssssssssssssssssssssssssssssssssssssssssssssssssssssssssssssssssssssssssss",
"ssssssssssssssssssssssssssssssssssssssssssssssssssssssssssssssssssssssssssssssssssssssssssssssssssssssssssssssssssssssssssssssss",
"ssssssssssssssssssssssssssssssssssssssssssssssssssssssssssssssssssssssssssssssssssssssssssssssssssssssssssssssssssssssssssssssss",
"ssssssssssssssssssssssssssssssssssssssssssssssssssssssssssssssssssssssssssssssssssssssssssssssssssssssssssssssssssssssssssssssss",
"ssssssssssssssssssssssssssssssssssssssssssssssssssssssssssssssssssssssssssssssssssssssssssssssssssssssssssssssssssssssssssssssss",
"ssssssssssssssssssssssssssssssssssssssssssssXXXX&&&&&&&&&&&&&&&&&&&&&&&&&&&&&&&&XXXXssssssssssssssssssssssssssssssssssssssssssss",
"ssssssssssssssssssssssssssssssssssssssssssssXXXX&&&&&&&&&&&&&&&&&&&&&&&&&&&&&&&&XXXXssssssssssssssssssssssssssssssssssssssssssss",
"ssssssssssssssssssssssssssssssssssssssssssssXXXX&&&&&&&&&&&&&&&&&&&&&&&&&&&&&&&&XXXXssssssssssssssssssssssssssssssssssssssssssss",
"ssssssssssssssssssssssssssssssssssssssssssssXXXX&&&&&&&&&&&&&&&&&&&&&&&&&&&&&&&&XXXXssssssssssssssssssssssssssssssssssssssssssss",
"ssssssssssssssssssssssssssssssssssssssss    <<<<888888888888888888888888888888885555    ssssssssssssssssssssssssssssssssssssssss",
"ssssssssssssssssssssssssssssssssssssssss    <<<<888888888888888888888888888888885555    ssssssssssssssssssssssssssssssssssssssss",
"ssssssssssssssssssssssssssssssssssssssss    <<<<888888888888888888888888888888885555    ssssssssssssssssssssssssssssssssssssssss",
"ssssssssssssssssssssssssssssssssssssssss    <<<<888888888888888888888888888888885555    ssssssssssssssssssssssssssssssssssssssss",
"ssssssssssssssssssssssssssssssssssss&&&&&&&&wwwwaaaaaaaaaaaaaaaaaaaaaaaaaaaaaaaaeeee&&&&&&&&ssssssssssssssssssssssssssssssssssss",
"ssssssssssssssssssssssssssssssssssss&&&&&&&&wwwwaaaaaaaaaaaaaaaaaaaaaaaaaaaaaaaaeeee&&&&&&&&ssssssssssssssssssssssssssssssssssss",
"ssssssssssssssssssssssssssssssssssss&&&&&&&&wwwwaaaaaaaaaaaaaaaaaaaaaaaaaaaaaaaaeeee&&&&&&&&ssssssssssssssssssssssssssssssssssss",
"ssssssssssssssssssssssssssssssssssss&&&&&&&&wwwwaaaaaaaaaaaaaaaaaaaaaaaaaaaaaaaaeeee&&&&&&&&ssssssssssssssssssssssssssssssssssss",
"ssssssssssssssssssssssssssssssss&&&&33330000yyyyaaaaaaaaaaaaaaaaaaaaaaaaaaaaaaaapppp00003333&&&&ssssssssssssssssssssssssssssssss",
"ssssssssssssssssssssssssssssssss&&&&33330000yyyyaaaaaaaaaaaaaaaaaaaaaaaaaaaaaaaapppp00003333&&&&ssssssssssssssssssssssssssssssss",
"ssssssssssssssssssssssssssssssss&&&&33330000yyyyaaaaaaaaaaaaaaaaaaaaaaaaaaaaaaaapppp00003333&&&&ssssssssssssssssssssssssssssssss",
"ssssssssssssssssssssssssssssssss&&&&33330000yyyyaaaaaaaaaaaaaaaaaaaaaaaaaaaaaaaapppp00003333&&&&ssssssssssssssssssssssssssssssss",
"ssssssssssssssssssssssssssssXXXX&&&&0000aaaaaaaaaaaaaaaaaaaaaaaaaaaaaaaaaaaaaaaaaaaaaaaa0000&&&&XXXXssssssssssssssssssssssssssss",
"ssssssssssssssssssssssssssssXXXX&&&&0000aaaaaaaaaaaaaaaaaaaaaaaaaaaaaaaaaaaaaaaaaaaaaaaa0000&&&&XXXXssssssssssssssssssssssssssss",
"ssssssssssssssssssssssssssssXXXX&&&&0000aaaaaaaaaaaaaaaaaaaaaaaaaaaaaaaaaaaaaaaaaaaaaaaa0000&&&&XXXXssssssssssssssssssssssssssss",
"ssssssssssssssssssssssssssssXXXX&&&&0000aaaaaaaaaaaaaaaaaaaaaaaaaaaaaaaaaaaaaaaaaaaaaaaa0000&&&&XXXXssssssssssssssssssssssssssss",
"ssssssssssssssssssssssssXXXX3333eeeeppppaaaaaaaaaaaaaaaaaaaaaaaaaaaaaaaaaaaaaaaaaaaaaaaappppeeee;;;;XXXXssssssssssssssssssssssss",
"ssssssssssssssssssssssss&&XX3333eeeeppppaaaaaaaaaaaaaaaaaaaaaaaaaaaaaaaaaaaaaaaaaaaaaaaappppeeee;;;;XXXXssssssssssssssssssssssss",
"ssssssssssssssssssssssss&&&&3333eeeeppppaaaaaaaaaaaaaaaaaaaaaaaaaaaaaaaaaaaaaaaaaaaaaaaappppeeee;;;;@@XXssssssssssssssssssssssss",
"ssssssssssssssssssssssss&&&&3333eeeeppppaaaaaaaaaaaaaaaaaaaaaaaaaaaaaaaaaaaaaaaaaaaaaaaappppeeee;;;;@@XXssssssssssssssssssssssss",
"ssssssssssssssssssssssss&&&&7777aaaaaaaaaaaaaaaaaaaaaaaaaaaaaaaaaaaaaaaaaaaaaaaaaaaaaaaaaaaaaaaa2222&&&&ssssssssssssssssssssssss",
"ssssssssssssssssssssssss&&&&7777aaaaaaaaaaaaaaaaaaaaaaaaaaaaaaaaaaaaaaaaaaaaaaaaaaaaaaaaaaaaaaaa2222&&&&ssssssssssssssssssssssss",
"ssssssssssssssssssssssss&&&&7777aaaaaaaaaaaaaaaaaaaaaaaaaaaaaaaaaaaaaaaaaaaaaaaaaaaaaaaaaaaaaaaa2222&&&&ssssssssssssssssssssssss",
"ssssssssssssssssssssssss&&&&7777aaaaaaaaaaaaaaaaaaaaaaaaaaaaaaaaaaaaaaaaaaaaaaaaaaaaaaaaaaaaaaaa2222&&&&ssssssssssssssssssssssss",
"ssssssssssssssssssssssss&&&&7777aaaaaaaaaaaaaaaaaaaaaaaaaaaaaaaaaaaaaaaaaaaaaaaaaaaaaaaaaaaaaaaa2222&&&&ssssssssssssssssssssssss",
"ssssssssssssssssssssssss&&&&7777aaaaaaaaaaaaaaaaaaaaaaaaaaaaaaaaaaaaaaaaaaaaaaaaaaaaaaaaaaaaaaaa2222&&&&ssssssssssssssssssssssss",
"ssssssssssssssssssssssss&&&&7777aaaaaaaaaaaaaaaaaaaaaaaaaaaaaaaaaaaaaaaaaaaaaaaaaaaaaaaaaaaaaaaa2222&&&&ssssssssssssssssssssssss",
"ssssssssssssssssssssssss&&&&7777aaaaaaaaaaaaaaaaaaaaaaaaaaaaaaaaaaaaaaaaaaaaaaaaaaaaaaaaaaaaaaaa2222&&&&ssssssssssssssssssssssss",
"ssssssssssssssssssssssss&&&&7777aaaaaaaaaaaaaaaaaaaaaaaaaaaaaaaaaaaaaaaaaaaaaaaaaaaaaaaaaaaaaaaa2222&&&&ssssssssssssssssssssssss",
"ssssssssssssssssssssssss&&&&7777aaaaaaaaaaaaaaaaaaaaaaaaaaaaaaaaaaaaaaaaaaaaaaaaaaaaaaaaaaaaaaaa2222&&&&ssssssssssssssssssssssss",
"ssssssssssssssssssssssss&&&&7777aaaaaaaaaaaaaaaaaaaaaaaaaaaaaaaaaaaaaaaaaaaaaaaaaaaaaaaaaaaaaaaa2222&&&&ssssssssssssssssssssssss",
"ssssssssssssssssssssssss&&&&7777aaaaaaaaaaaaaaaaaaaaaaaaaaaaaaaaaaaaaaaaaaaaaaaaaaaaaaaaaaaaaaaa2222&&&&ssssssssssssssssssssssss",
"ssssssssssssssssssssssss&&&&7777aaaaaaaaaaaaaaaaaaaaaaaaaaaaaaaaaaaaaaaaaaaaaaaaaaaaaaaaaaaaaaaa2222&&&&ssssssssssssssssssssssss",
"ssssssssssssssssssssssss&&&&7777aaaaaaaaaaaaaaaaaaaaaaaaaaaaaaaaaaaaaaaaaaaaaaaaaaaaaaaaaaaaaaaa2222&&&&ssssssssssssssssssssssss",
"ssssssssssssssssssssssss&&&&7777aaaaaaaaaaaaaaaaaaaaaaaaaaaaaaaaaaaaaaaaaaaaaaaaaaaaaaaaaaaaaaaa2222&&&&ssssssssssssssssssssssss",
"ssssssssssssssssssssssss&&&&7777aaaaaaaaaaaaaaaaaaaaaaaaaaaaaaaaaaaaaaaaaaaaaaaaaaaaaaaaaaaaaaaa2222&&&&ssssssssssssssssssssssss",
"ssssssssssssssssssssssss&&&&7777aaaaaaaaaaaaaaaaaaaaaaaaaaaaaaaaaaaaaaaaaaaaaaaaaaaaaaaaaaaaaaaa2222&&&&ssssssssssssssssssssssss",
"ssssssssssssssssssssssss&&&&7777aaaaaaaaaaaaaaaaaaaaaaaaaaaaaaaaaaaaaaaaaaaaaaaaaaaaaaaaaaaaaaaa2222&&&&ssssssssssssssssssssssss",
"ssssssssssssssssssssssss&&&&7777aaaaaaaaaaaaaaaaaaaaaaaaaaaaaaaaaaaaaaaaaaaaaaaaaaaaaaaaaaaaaaaa2222&&&&ssssssssssssssssssssssss",
"ssssssssssssssssssssssss&&&&7777aaaaaaaaaaaaaaaaaaaaaaaaaaaaaaaaaaaaaaaaaaaaaaaaaaaaaaaaaaaaaaaa2222&&&&ssssssssssssssssssssssss",
"ssssssssssssssssssssssss&&&&7777aaaaaaaaaaaaaaaaaaaaaaaaaaaaaaaaaaaaaaaaaaaaaaaaaaaaaaaaaaaaaaaa2222&&&&ssssssssssssssssssssssss",
"ssssssssssssssssssssssss&&&&7777aaaaaaaaaaaaaaaaaaaaaaaaaaaaaaaaaaaaaaaaaaaaaaaaaaaaaaaaaaaaaaaa2222&&&&ssssssssssssssssssssssss",
"ssssssssssssssssssssssss&&&&7777aaaaaaaaaaaaaaaaaaaaaaaaaaaaaaaaaaaaaaaaaaaaaaaaaaaaaaaaaaaaaaaa2222&&&&ssssssssssssssssssssssss",
"ssssssssssssssssssssssss&&&&7777aaaaaaaaaaaaaaaaaaaaaaaaaaaaaaaaaaaaaaaaaaaaaaaaaaaaaaaaaaaaaaaa2222&&&&ssssssssssssssssssssssss",
"ssssssssssssssssssssssss&&&&7777aaaaaaaaaaaaaaaaaaaaaaaaaaaaaaaaaaaaaaaaaaaaaaaaaaaaaaaaaaaaaaaa2222&&&&ssssssssssssssssssssssss",
"ssssssssssssssssssssssss&&&&7777aaaaaaaaaaaaaaaaaaaaaaaaaaaaaaaaaaaaaaaaaaaaaaaaaaaaaaaaaaaaaaaa2222&&&&ssssssssssssssssssssssss",
"ssssssssssssssssssssssss&&&&7777aaaaaaaaaaaaaaaaaaaaaaaaaaaaaaaaaaaaaaaaaaaaaaaaaaaaaaaaaaaaaaaa2222&&&&ssssssssssssssssssssssss",
"ssssssssssssssssssssssss&&&&7777aaaaaaaaaaaaaaaaaaaaaaaaaaaaaaaaaaaaaaaaaaaaaaaaaaaaaaaaaaaaaaaa2222&&&&ssssssssssssssssssssssss",
"ssssssssssssssssssssssss&&&&7777aaaaaaaaaaaaaaaaaaaaaaaaaaaaaaaaaaaaaaaaaaaaaaaaaaaaaaaaaaaaaaaa2222&&&&ssssssssssssssssssssssss",
"ssssssssssssssssssssssss&&&&7777aaaaaaaaaaaaaaaaaaaaaaaaaaaaaaaaaaaaaaaaaaaaaaaaaaaaaaaaaaaaaaaa2222&&&&ssssssssssssssssssssssss",
"ssssssssssssssssssssssss&&&&7777aaaaaaaaaaaaaaaaaaaaaaaaaaaaaaaaaaaaaaaaaaaaaaaaaaaaaaaaaaaaaaaa2222&&&&ssssssssssssssssssssssss",
"ssssssssssssssssssssssss&&&&7777aaaaaaaaaaaaaaaaaaaaaaaaaaaaaaaaaaaaaaaaaaaaaaaaaaaaaaaaaaaaaaaa2222&&&&ssssssssssssssssssssssss",
"ssssssssssssssssssssssss&&&&,,,,0000yyrraaaaaaaaaaaaaaaaaaaaaaaaaaaaaaaaaaaaaaaaaaaaaaaayyrr9999----&&&&ssssssssssssssssssssssss",
"ssssssssssssssssssssssss&&&&,,,,0000yyrraaaaaaaaaaaaaaaaaaaaaaaaaaaaaaaaaaaaaaaaaaaaaaaayyry9999----&&&&ssssssssssssssssssssssss",
"ssssssssssssssssssssssss&&&&,,,,0000yrrraaaaaaaaaaaaaaaaaaaaaaaaaaaaaaaaaaaaaaaaaaaaaaaayyyy0099----&&&&ssssssssssssssssssssssss",
"ssssssssssssssssssssssss&&&&,,,,0000yrrraaaaaaaaaaaaaaaaaaaaaaaaaaaaaaaaaaaaaaaaaaaaaaaayyyy0009----&&&&ssssssssssssssssssssssss",
"ssssssssssssssssssssssssssssXXXX&&&&0000aaaaaaaaaaaaaaaaaaaaaaaaaaaaaaaaaaaaaaaaaaaaaaaa0000&&&&....ssssssssssssssssssssssssssss",
"ssssssssssssssssssssssssssssXXXX&&&&0000aaaaaaaaaaaaaaaaaaaaaaaaaaaaaaaaaaaaaaaaaaaaaaaa0000&&&&....ssssssssssssssssssssssssssss",
"ssssssssssssssssssssssssssssXXXX&&&&0000aaaaaaaaaaaaaaaaaaaaaaaaaaaaaaaaaaaaaaaaaaaaaaaa0000&&&&....ssssssssssssssssssssssssssss",
"ssssssssssssssssssssssssssssXXXX&&&&0000aaaaaaaaaaaaaaaaaaaaaaaaaaaaaaaaaaaaaaaaaaaaaaaa0000&&&&....ssssssssssssssssssssssssssss",
"ssssssssssssssssssssssssssssssssXXXX,,,,6666rrrraaaaaaaaaaaaaaaaaaaaaaaaaaaaaaaauuuu6666,,,,XXXXssssssssssssssssssssssssssssssss",
"ssssssssssssssssssssssssssssssssXXXX,,,,6666rrrraaaaaaaaaaaaaaaaaaaaaaaaaaaaaaaauuuu6666,,,,XXXXssssssssssssssssssssssssssssssss",
"ssssssssssssssssssssssssssssssssXXXX,,,,6666rrrraaaaaaaaaaaaaaaaaaaaaaaaaaaaaaaauuuu6666,,,,XXXXssssssssssssssssssssssssssssssss",
"ssssssssssssssssssssssssssssssssXXXX,,,,6666rrrraaaaaaaaaaaaaaaaaaaaaaaaaaaaaaaauuuu6666,,,,XXXXssssssssssssssssssssssssssssssss",
"ssssssssssssssssssssssssssssssssssss&&&&&&&&wwwwaaaaaaaaaaaaaaaaaaaaaaaaaaaaaaaaeeee&&&&&&&&ssssssssssssssssssssssssssssssssssss",
"ssssssssssssssssssssssssssssssssssss&&&&&&&&wwwwaaaaaaaaaaaaaaaaaaaaaaaaaaaaaaaaeeee&&&&&&&&ssssssssssssssssssssssssssssssssssss",
"ssssssssssssssssssssssssssssssssssss&&&&&&&&wwwwaaaaaaaaaaaaaaaaaaaaaaaaaaaaaaaaeeee&&&&&&&&ssssssssssssssssssssssssssssssssssss",
"ssssssssssssssssssssssssssssssssssss&&&&&&&&wwwwaaaaaaaaaaaaaaaaaaaaaaaaaaaaaaaaeeee&&&&&&&&ssssssssssssssssssssssssssssssssssss",
"ssssssssssssssssssssssssssssssssssssssssssss----<<<<<<<<<<<<<<<<<<<<<<<<<<<<<<<1;;;;ssssssssssssssssssssssssssssssssssssssssssss",
"ssssssssssssssssssssssssssssssssssssssssssss----<<<<<<<<<<11<<<<<<<<<<<<<<<<<<<1;;;;ssssssssssssssssssssssssssssssssssssssssssss",
"ssssssssssssssssssssssssssssssssssssssssssss----<<<<<<<<<<1<<<<<<<<<<<<<<<<<<<<1;;;;ssssssssssssssssssssssssssssssssssssssssssss",
"ssssssssssssssssssssssssssssssssssssssssssss----<<<<<<<<<<<<<<<<<<<<<<<<<<<<<<<<;;;;ssssssssssssssssssssssssssssssssssssssssssss",
"ssssssssssssssssssssssssssssssssssssssssssssXXXX&&&&&&&&&&&&&&&&&&&&&&&&&&&&&&&&XXXXssssssssssssssssssssssssssssssssssssssssssss",
"ssssssssssssssssssssssssssssssssssssssssssssXXXX&&&&&&&&&&&&&&&&&&&&&&&&&&&&&&&&XXXXssssssssssssssssssssssssssssssssssssssssssss",
"ssssssssssssssssssssssssssssssssssssssssssssXXXX&&&&&&&&&&&&&&&&&&&&&&&&&&&&&&&&XXXXssssssssssssssssssssssssssssssssssssssssssss",
"ssssssssssssssssssssssssssssssssssssssssssssXXXX&&&&&&&&&&&&&&&&&&&&&&&&&&&&&&&&XXXXssssssssssssssssssssssssssssssssssssssssssss",
"ssssssssssssssssssssssssssssssssssssssssssssssssssssssssssssssssssssssssssssssssssssssssssssssssssssssssssssssssssssssssssssssss",
"ssssssssssssssssssssssssssssssssssssssssssssssssssssssssssssssssssssssssssssssssssssssssssssssssssssssssssssssssssssssssssssssss",
"ssssssssssssssssssssssssssssssssssssssssssssssssssssssssssssssssssssssssssssssssssssssssssssssssssssssssssssssssssssssssssssssss",
"ssssssssssssssssssssssssssssssssssssssssssssssssssssssssssssssssssssssssssssssssssssssssssssssssssssssssssssssssssssssssssssssss",
"ssssssssssssssssssssssssssssssssssssssssssssssssssssssssssssssssssssssssssssssssssssssssssssssssssssssssssssssssssssssssssssssss",
"ssssssssssssssssssssssssssssssssssssssssssssssssssssssssssssssssssssssssssssssssssssssssssssssssssssssssssssssssssssssssssssssss",
"ssssssssssssssssssssssssssssssssssssssssssssssssssssssssssssssssssssssssssssssssssssssssssssssssssssssssssssssssssssssssssssssss",
"ssssssssssssssssssssssssssssssssssssssssssssssssssssssssssssssssssssssssssssssssssssssssssssssssssssssssssssssssssssssssssssssss",
"ssssssssssssssssssssssssssssssssssssssssssssssssssssssssssssssssssssssssssssssssssssssssssssssssssssssssssssssssssssssssssssssss",
"ssssssssssssssssssssssssssssssssssssssssssssssssssssssssssssssssssssssssssssssssssssssssssssssssssssssssssssssssssssssssssssssss",
"ssssssssssssssssssssssssssssssssssssssssssssssssssssssssssssssssssssssssssssssssssssssssssssssssssssssssssssssssssssssssssssssss",
"ssssssssssssssssssssssssssssssssssssssssssssssssssssssssssssssssssssssssssssssssssssssssssssssssssssssssssssssssssssssssssssssss",
"ssssssssssssssssssssssssssssssssssssssssssssssssssssssssssssssssssssssssssssssssssssssssssssssssssssssssssssssssssssssssssssssss",
"ssssssssssssssssssssssssssssssssssssssssssssssssssssssssssssssssssssssssssssssssssssssssssssssssssssssssssssssssssssssssssssssss",
"ssssssssssssssssssssssssssssssssssssssssssssssssssssssssssssssssssssssssssssssssssssssssssssssssssssssssssssssssssssssssssssssss",
"ssssssssssssssssssssssssssssssssssssssssssssssssssssssssssssssssssssssssssssssssssssssssssssssssssssssssssssssssssssssssssssssss",
"ssssssssssssssssssssssssssssssssssssssssssssssssssssssssssssssssssssssssssssssssssssssssssssssssssssssssssssssssssssssssssssssss",
"ssssssssssssssssssssssssssssssssssssssssssssssssssssssssssssssssssssssssssssssssssssssssssssssssssssssssssssssssssssssssssssssss",
"ssssssssssssssssssssssssssssssssssssssssssssssssssssssssssssssssssssssssssssssssssssssssssssssssssssssssssssssssssssssssssssssss",
"ssssssssssssssssssssssssssssssssssssssssssssssssssssssssssssssssssssssssssssssssssssssssssssssssssssssssssssssssssssssssssssssss",
"ssssssssssssssssssssssssssssssssssssssssssssssssssssssssssssssssssssssssssssssssssssssssssssssssssssssssssssssssssssssssssssssss",
"ssssssssssssssssssssssssssssssssssssssssssssssssssssssssssssssssssssssssssssssssssssssssssssssssssssssssssssssssssssssssssssssss",
"ssssssssssssssssssssssssssssssssssssssssssssssssssssssssssssssssssssssssssssssssssssssssssssssssssssssssssssssssssssssssssssssss",
"ssssssssssssssssssssssssssssssssssssssssssssssssssssssssssssssssssssssssssssssssssssssssssssssssssssssssssssssssssssssssssssssss"
};
