/* XPM */
static char * item_xpm[] = {
"32 32 40 1",
" 	c None",
".	c #1C1C1C",
"+	c #212121",
"@	c #1A1A1A",
"#	c #ABAAAA",
"$	c #C4C4C4",
"%	c #B8B8B7",
"&	c #D6D6D6",
"*	c #FFFFFF",
"=	c #E6E6E6",
"-	c #B0B0B0",
";	c #CCCCCC",
">	c #EFEFEF",
",	c #F5F5F5",
"'	c #1D1D1D",
")	c #CDCDCD",
"!	c #1C1D1C",
"~	c #1F1F1F",
"{	c #B2B2B2",
"]	c #F5F5F6",
"^	c #A2A2A2",
"/	c #1E1F1F",
"(	c #BDBDBD",
"_	c #ADADAD",
":	c #212021",
"<	c #A5A5A5",
"[	c #ECECEC",
"}	c #969696",
"|	c #1B1B1C",
"1	c #A4A4A4",
"2	c #BBBBBB",
"3	c #EBEBEB",
"4	c #F3F3F3",
"5	c #A4A5A5",
"6	c #202020",
"7	c #D5D5D5",
"8	c #979797",
"9	c #ABABAB",
"0	c #1E1E1D",
"a	c #222121",
"                                ",
"                                ",
"                                ",
"                                ",
"                                ",
"                                ",
"           .++++++++.           ",
"          @#$$$$$$$$%@          ",
"         ++&********=++         ",
"        +-;>********,;-+        ",
"       '+)************;+!       ",
"      ~{=]************]=^/      ",
"      +(****************_+      ",
"      +(****************_+      ",
"      +(****************_+      ",
"      +(****************_+      ",
"      +(****************_:      ",
"      +(****************_+      ",
"      +(****************_+      ",
"      +(****************_+      ",
"      +<;[************[;}+      ",
"       '+;************;+|       ",
"        .123********425!        ",
"         6+7********=+6         ",
"           899999999^           ",
"           0a+++++++0           ",
"                                ",
"                                ",
"                                ",
"                                ",
"                                ",
"                                "};
