/* XPM */
static char * wall2_xpm[] = {
"32 32 338 2",
"  	c #BEBDBE",
". 	c #BCBBBC",
"+ 	c #BCBCBC",
"@ 	c #B7B6B6",
"# 	c #B5B4B5",
"$ 	c #B6B6B6",
"% 	c #BBBBBB",
"& 	c #BDBDBD",
"* 	c #BCBCBD",
"= 	c #B7B6B7",
"- 	c #B6B5B6",
"; 	c #B5B5B5",
"> 	c #BABABA",
", 	c #BAB9BA",
"' 	c #B9B9B9",
") 	c #B9B9BA",
"! 	c #BBBBBC",
"~ 	c #B4B3B4",
"{ 	c #B1B0B1",
"] 	c #B2B1B2",
"^ 	c #BBBABB",
"/ 	c #B4B4B4",
"( 	c #B2B2B2",
"_ 	c #B8B8B8",
": 	c #B9B8B9",
"< 	c #B2B2B3",
"[ 	c #B3B2B3",
"} 	c #B3B3B3",
"| 	c #B7B7B7",
"1 	c #BABABB",
"2 	c #B3B2B2",
"3 	c #BDBCBD",
"4 	c #BCBBBB",
"5 	c #B4B4B5",
"6 	c #B8B7B7",
"7 	c #B5B5B6",
"8 	c #B8B7B8",
"9 	c #BDBCBC",
"0 	c #B5B4B4",
"a 	c #B6B5B5",
"b 	c #BAB9B9",
"c 	c #888788",
"d 	c #797879",
"e 	c #767576",
"f 	c #797979",
"g 	c #7C7B7C",
"h 	c #7A7A7A",
"i 	c #787778",
"j 	c #757576",
"k 	c #767677",
"l 	c #787878",
"m 	c #7A797A",
"n 	c #767676",
"o 	c #777777",
"p 	c #7C7B7B",
"q 	c #908F90",
"r 	c #4D4D4D",
"s 	c #1B6BAF",
"t 	c #145DA8",
"u 	c #125BA7",
"v 	c #186FB5",
"w 	c #072F62",
"x 	c #195482",
"y 	c #135DA8",
"z 	c #0F5BA7",
"A 	c #145EA9",
"B 	c #113443",
"C 	c #145FA9",
"D 	c #145CA8",
"E 	c #155FA9",
"F 	c #0A54A4",
"G 	c #6F6F6F",
"H 	c #B1B1B1",
"I 	c #B3B3B4",
"J 	c #B0B0B0",
"K 	c #525252",
"L 	c #1B7ED3",
"M 	c #0964C5",
"N 	c #0966C7",
"O 	c #0E6ECB",
"P 	c #1B68A0",
"Q 	c #0A67C8",
"R 	c #0965C5",
"S 	c #0966C6",
"T 	c #0966C5",
"U 	c #0B69C8",
"V 	c #0967C6",
"W 	c #164253",
"X 	c #0C6ACA",
"Y 	c #0865C6",
"Z 	c #0A66C7",
"` 	c #0967C8",
" .	c #6E6E6E",
"..	c #504F4F",
"+.	c #1C7FD4",
"@.	c #0967C7",
"#.	c #1B69A0",
"$.	c #0A68C9",
"%.	c #174254",
"&.	c #0C6BCB",
"*.	c #0968C8",
"=.	c #0A68C8",
"-.	c #4F4F4F",
";.	c #1B333E",
">.	c #0E1D2D",
",.	c #0D1C2D",
"'.	c #0E1D2C",
").	c #0B1622",
"!.	c #14272F",
"~.	c #132634",
"{.	c #0F1F2E",
"].	c #0B1014",
"^.	c #19303B",
"/.	c #0E1E2F",
"(.	c #0E1E2D",
"_.	c #545353",
":.	c #1A82D7",
"<.	c #0F72CF",
"[.	c #0E72CF",
"}.	c #0E73D0",
"|.	c #0E74D1",
"1.	c #0C6DCB",
"2.	c #0C6CCC",
"3.	c #0C6DCC",
"4.	c #073262",
"5.	c #0960B8",
"6.	c #1070CD",
"7.	c #0F6ECD",
"8.	c #0E6ECC",
"9.	c #0B6BCB",
"0.	c #147AD4",
"a.	c #0955A2",
"b.	c #0D6ECD",
"c.	c #1070CE",
"d.	c #6D6D6D",
"e.	c #BDBDBE",
"f.	c #1D85D8",
"g.	c #0968C9",
"h.	c #0A69C9",
"i.	c #0A60B8",
"j.	c #0866C6",
"k.	c #0866C7",
"l.	c #0B56A3",
"m.	c #0A67C7",
"n.	c #6E6F6F",
"o.	c #4F4E4E",
"p.	c #1B82CB",
"q.	c #075DB8",
"r.	c #085EB8",
"s.	c #085DB7",
"t.	c #085FB9",
"u.	c #085DB8",
"v.	c #085EB7",
"w.	c #062B59",
"x.	c #0C58A7",
"y.	c #095EB8",
"z.	c #0C5799",
"A.	c #0860B7",
"B.	c #085DB6",
"C.	c #6C6C6D",
"D.	c #505050",
"E.	c #1A5D90",
"F.	c #112B36",
"G.	c #134C88",
"H.	c #0C4586",
"I.	c #BEBEBE",
"J.	c #B7B7B8",
"K.	c #504F50",
"L.	c #1C7CD3",
"M.	c #0F6ECC",
"N.	c #0E6DCB",
"O.	c #1E6EA5",
"P.	c #1476D1",
"Q.	c #1274CF",
"R.	c #1577D0",
"S.	c #1276D0",
"T.	c #1477D1",
"U.	c #1072CE",
"V.	c #1F91E3",
"W.	c #0C6CCB",
"X.	c #0B6ACA",
"Y.	c #0B6BCA",
"Z.	c #0B6AC9",
"`.	c #0C6AC9",
" +	c #0967C9",
".+	c #1E81D6",
"++	c #1C6CA3",
"@+	c #0966C8",
"#+	c #164153",
"$+	c #0D6DCC",
"%+	c #6E6D6E",
"&+	c #535353",
"*+	c #0B4585",
"=+	c #102A35",
"-+	c #0B4484",
";+	c #1979C5",
">+	c #0E6CC0",
",+	c #106FC1",
"'+	c #0E6CBF",
")+	c #0D70C2",
"!+	c #0C64BA",
"~+	c #208DD7",
"{+	c #2497DF",
"]+	c #0F456A",
"^+	c #0C61AC",
"/+	c #0D69BC",
"(+	c #0D69BE",
"_+	c #0D6DC1",
":+	c #0B66BB",
"<+	c #0B63BB",
"[+	c #0A5095",
"}+	c #0E67BC",
"|+	c #0D67BC",
"1+	c #6C6C6C",
"2+	c #515151",
"3+	c #1C81D6",
"4+	c #0E6BCA",
"5+	c #0A69C8",
"6+	c #1676D0",
"7+	c #187BD4",
"8+	c #0A3966",
"9+	c #0B69C9",
"0+	c #0E6BC9",
"a+	c #0B56A2",
"b+	c #0D6AC9",
"c+	c #1372CE",
"d+	c #1F88DA",
"e+	c #0968CA",
"f+	c #0867CA",
"g+	c #0969CB",
"h+	c #0868CA",
"i+	c #0867C9",
"j+	c #063064",
"k+	c #0C67BC",
"l+	c #0866C9",
"m+	c #0968CB",
"n+	c #084386",
"o+	c #0D5CA6",
"p+	c #0A69CC",
"q+	c #707070",
"r+	c #0A1F27",
"s+	c #0C426B",
"t+	c #083A67",
"u+	c #174E71",
"v+	c #1A5878",
"w+	c #0B3566",
"x+	c #B1B1B2",
"y+	c #1B7BD2",
"z+	c #0C6BCA",
"A+	c #0D6DCB",
"B+	c #1B89DE",
"C+	c #1C67A0",
"D+	c #0C6ACB",
"E+	c #1678D1",
"F+	c #259BEC",
"G+	c #154154",
"H+	c #1E87DD",
"I+	c #167AD4",
"J+	c #1E88DE",
"K+	c #208AE0",
"L+	c #197FD8",
"M+	c #515051",
"N+	c #1D7FD5",
"O+	c #1B67A0",
"P+	c #0B69CA",
"Q+	c #177CD6",
"R+	c #0764C6",
"S+	c #B6B6B7",
"T+	c #535253",
"U+	c #2272AD",
"V+	c #0E55A1",
"W+	c #0D53A1",
"X+	c #0E54A1",
"Y+	c #1D5C84",
"Z+	c #125EA5",
"`+	c #0D539F",
" @	c #0D54A1",
".@	c #0C53A0",
"+@	c #0E54A0",
"@@	c #113341",
"#@	c #1B6FB0",
"$@	c #0E55A2",
"%@	c #0D54A0",
"&@	c #0C53A1",
"*@	c #113D80",
"=@	c #103A7D",
"-@	c #103B7F",
";@	c #113B7E",
">@	c #113A7D",
",@	c #123B7E",
"'@	c #0B2A64",
")@	c #103777",
"!@	c #113A7C",
"~@	c #08193B",
"{@	c #0E3370",
"]@	c #113B7D",
"^@	c #0B2451",
"/@	c #0D2D63",
"(@	c #10397B",
"_@	c #113B7F",
":@	c #6F6E6F",
"<@	c #B0AFB0",
"[@	c #09316F",
"}@	c #082F6C",
"|@	c #082F6B",
"1@	c #09306C",
"2@	c #082E6A",
"3@	c #072253",
"4@	c #082C66",
"5@	c #092F6B",
"6@	c #061433",
"7@	c #072A60",
"8@	c #092E6C",
"9@	c #09306E",
"0@	c #09306D",
"a@	c #072E6A",
"b@	c #081E47",
"c@	c #082555",
"d@	c #072F6C",
"e@	c #082E6B",
"f@	c #BBBABA",
"g@	c #999898",
"h@	c #979697",
"i@	c #949494",
"j@	c #989798",
"k@	c #9A9A9A",
"l@	c #969696",
"m@	c #959495",
"n@	c #969596",
"o@	c #929292",
"p@	c #939293",
"q@	c #939394",
"r@	c #A3A3A3",
"s@	c #B9B8B8",
"t@	c #B1B0B0",
"u@	c #BFBEBF",
"v@	c #BEBEBF",
"w@	c #BFBFBF",
"  . + @ # $ % & * = - ; > & % , - - ' . * ' @ - $   +   - @ - & ",
"% ) ! ~ { ] ) % ^ / ] ( _ , ' : < [ $ + > = ( ] - % , ^ [ ] } ! ",
"+ , . # [ ] | > % # ] ] - % % | ( [ ; , : | ] ] $ 1 , + 2 ] [ % ",
"| } [ : % 3 = = # , 4 % : 5 # : ^ ^ 6 } 7 8 % % 8 # ; - > 9 > $ ",
"; { [ 8 > > = / [ , , 1 _ } ] = ! . _ ~ ] = 1 . : ~ ~ 0 > > : ; ",
"a [ 2 : 9 b 8 ~ 7 % ^ > - ~ ( 8 ^ % _ } } = > ^ > } [ - > b : # ",
". ^ , - | c d e e f g h i j k l f f m l n o f p h k q ^ = 8 = % ",
"& % ^ } < r s t u v w x t t y y t z A B C t D y E F G ! H [ ~   ",
"3 . ^ I J K L M N O w P Q R S S T U V W X Y R Z S `  .^ ] ] { . ",
"b $ ; | $ ..+.` ` @.w #.$.` $.` ` ` N %.&.$.*.=.*.` G = 8 | - : ",
"= # - : , -.;.>.,.'.).!.~.'.'.'.>.'.{.].^.>.w /.(.>. .7 ^ + . | ",
"# } ~ ) % _.:.<.[.}.}.|.1.2.3.4.5.6.7.8.9.0.w a.b.c.d.~ + + e._ ",
", @ = - 8 K f.g.` *.Q g.` ` h.w i.N j.` k.k.w l.m.` n.8 $ = 5 ^ ",
"3 + . ~ ( o.p.q.r.r.s.t.s.u.v.w.x.s.y.q.u.s.w z.A.B.C.> ] ~ J 3 ",
"* + . } ] D.E.,.,.,.w ,.,.,.,.,.,.,.,.F.,.,.,.G.G.H. .+ H } ] I.",
"^ : 8 | J.K.L.M.8.N.w O.P.Q.R.S.T.U.V.W W.X.Y.Z.`. +G : 8 | $ : ",
"- [ [ > , K .+` ` ` w ++X @+$.N N @.Q #+$+@.k.Q k.*.%+/ 3 + + $ ",
"- ~ } > ) &+,.,.,.w w w w ,.,.,.,.,.*+=+,.,.,.,.,.-+ .( + . > = ",
"| I ~ | ' &+;+w >+,+'+)+!+~+{+]+^+/+(+_+:+<+,.[+}+|+1+; : 8 _ 8 ",
"e.* % ~ ] 2+3+w `.*.4+` 5+6+7+8+i.Q @.9+m.0+,.a+b+c+G e.( ] ] & ",
"e.% ! # ] D.d+,.e+f+f+g+h+h+i+j+k+l+f+f+m+f+n+o+k.p+q++ / ~ [ & ",
"% , 8 7 J.&+,.,.,.,.,.w w ,.,.,.,.,.,.r+s+t+w u+v+w+G > ; - # ^ ",
"5 x+{ , + K y+z+A+B+,.C+&.D+&.D+&.E+F+G+H+I+J+K+L+k.G - ^ % . - ",
"$ ] [ , % M+N+` g.N w O+P+@+k.k.` k.N W Q+ +N R+k.@+ .S+. ^ ^ # ",
"8 $ / | 3 T+U+V+W+X+w Y+Z+`+X+ @.@+@.@@@#@$@W+W+%@&@ .= 3 % _ ; ",
"3 , . ~ ( -.*@=@-@;@>@,@'@)@!@~@{@]@;@]@;@!@^@/@(@_@:@+ 2 ] <@. ",
"+ . . # ] D.[@}@}@|@1@2@3@4@5@6@7@8@9@0@1@a@b@c@d@e@q+3 [ [ ~ . ",
"f@' ) ~ [ g@h@i@j@k@l@m@n@h@j@n@i@n@i@o@p@q@n@i@p@l@r@, } ~ # ^ ",
"; ] ] s@, : - ] ~ , ^ . = ~ < J.3 % 8 H ] - % + 8 ] ] ~ 3 4 , - ",
"- ] ~ : : 1 ; ] ] ^ . . | x+~ | % > 8 } } - 9 % ' t@( 5 + > : ; ",
"- [ ~ > , f@| ] [ ^ , % $ ~ ~ J.. 3 8 ~ 7 = & . S+[ } / ^ + > @ ",
"    & 8 | = ^     , $ = > 3 & . - 8 > u@v@, 7 S+8 v@u@w@8 @ | I."};
